<?xml version="1.0" ?><!DOCTYPE svg  PUBLIC '-//W3C//DTD SVG 1.1//EN'  'http://www.w3.org/Graphics/SVG/1.1/DTD/svg11.dtd'><svg enable-background="new 0 0 128 128" height="128px" id="Layer_1" version="1.1" viewBox="0 0 128 128" width="128px" xml:space="preserve" xmlns="http://www.w3.org/2000/svg" xmlns:xlink="http://www.w3.org/1999/xlink"><g><g><g><path d="M83.808,96.377l-0.276,0.456c-0.512,0.829-1.399,1.322-2.375,1.322c-0.516,0-1.021-0.142-1.46-0.415     l-13.697-8.455c-0.618,0.13-1.257,0.102-1.85-0.069l-14.877,7.467c-0.386,0.195-0.817,0.297-1.248,0.297     c-1.061,0-2.013-0.59-2.493-1.537l-0.236-0.472c-0.687-1.374-0.13-3.054,1.24-3.742l15.287-7.67     c0.102-0.183,0.216-0.354,0.346-0.517V65.078c0-1.537,1.249-2.786,2.786-2.786h0.529c1.537,0,2.79,1.248,2.79,2.786v17.968     c0.183,0.232,0.342,0.492,0.472,0.76l14.157,8.74c0.634,0.39,1.078,1.005,1.249,1.729C84.32,94.998,84.198,95.746,83.808,96.377z     " fill="#2E79BE"/></g></g><path d="M89.671,50.763l-0.364,0.236c-0.107,0.086-0.214,0.161-0.321,0.246c-0.278,0.214-0.6,0.45-0.986,0.611   c-2.625,1.061-5.496,1.736-8.817,2.121c-2.55,0.289-5.132,0.514-7.414,0.696c-0.675,0.054-1.318,0.129-1.928,0.182l-5.228,0.032   l-5.228-0.032c-0.611-0.054-1.253-0.129-1.928-0.182c-2.282-0.182-4.864-0.407-7.414-0.696c-3.321-0.386-6.192-1.061-8.817-2.121   c-0.386-0.161-0.707-0.396-0.986-0.611c-0.107-0.086-0.214-0.161-0.321-0.246l-0.364-0.236l0.011-1.939   c0.043-0.236,0.086-0.461,0.129-0.675c0.064-0.461,0.139-0.921,0.236-1.371c0.504-2.539,1.361-4.746,2.625-6.76   c1.082-1.725,2.4-3.01,3.91-3.825c2.196-1.157,4.467-2.293,6.664-3.396c0.836-0.418,1.586-0.953,2.464-1.296   c0.771-0.3,1.596-0.589,2.164-1.232c0.279-0.3,0.503-0.654,0.664-1.018c0.19-0.404,0.431-0.933,0.133-1.339   c-0.28-0.382-0.565-0.758-0.837-1.146c-0.546-0.778-1.072-1.571-1.653-2.325c-0.461-0.589-0.953-1.232-1.607-1.639   c-2.314-1.489-2.614-3.589-0.364-4.81C52.11,12.925,53.91,9.1,58.849,6.389c1.918-1.061,3.835-1.596,5.764-1.586   c1.928-0.011,3.846,0.525,5.764,1.586c4.939,2.71,6.739,6.535,4.757,11.602c2.25,1.221,1.95,3.321-0.364,4.81   c-0.653,0.407-1.146,1.05-1.607,1.639c-0.551,0.715-1.053,1.465-1.569,2.205c-0.279,0.4-0.658,0.735-0.886,1.171   c-0.262,0.502-0.132,0.945,0.098,1.434c0.161,0.364,0.386,0.718,0.664,1.018c0.568,0.643,1.393,0.932,2.164,1.232   c0.878,0.343,1.628,0.878,2.464,1.296c2.196,1.103,4.467,2.239,6.664,3.396c1.511,0.814,2.828,2.1,3.91,3.825   c1.264,2.014,2.121,4.221,2.625,6.76c0.096,0.45,0.171,0.911,0.236,1.371c0.043,0.214,0.086,0.439,0.129,0.675L89.671,50.763z" fill="#2D3E4F"/><path d="M52.106,119.072l-0.364,0.236c-0.107,0.086-0.214,0.161-0.321,0.246c-0.278,0.214-0.6,0.45-0.986,0.611   c-2.625,1.061-5.496,1.736-8.817,2.121c-2.55,0.289-5.132,0.514-7.414,0.696c-0.675,0.054-1.318,0.129-1.928,0.182l-5.228,0.032   l-5.228-0.032c-0.611-0.054-1.253-0.129-1.928-0.182c-2.282-0.182-4.864-0.407-7.414-0.696c-3.321-0.386-6.192-1.061-8.817-2.121   c-0.386-0.161-0.707-0.396-0.986-0.611c-0.107-0.086-0.214-0.161-0.321-0.246l-0.364-0.236l0.011-1.939   c0.043-0.236,0.086-0.461,0.129-0.675c0.064-0.461,0.139-0.921,0.236-1.371c0.504-2.539,1.361-4.746,2.625-6.76   c1.082-1.725,2.4-3.01,3.91-3.825c2.196-1.157,4.467-2.293,6.664-3.396c0.836-0.418,1.586-0.953,2.464-1.296   c0.771-0.3,1.596-0.589,2.164-1.232c0.279-0.3,0.503-0.654,0.664-1.018c0.19-0.404,0.431-0.933,0.133-1.339   c-0.28-0.382-0.565-0.758-0.837-1.146c-0.546-0.778-1.072-1.571-1.653-2.325c-0.461-0.589-0.953-1.232-1.607-1.639   c-2.314-1.489-2.614-3.589-0.364-4.81c-1.982-5.067-0.182-8.892,4.757-11.602c1.918-1.061,3.835-1.596,5.764-1.586   c1.928-0.011,3.846,0.525,5.764,1.586c4.939,2.71,6.739,6.535,4.757,11.602c2.25,1.221,1.95,3.321-0.364,4.81   c-0.653,0.407-1.146,1.05-1.607,1.639c-0.551,0.715-1.053,1.465-1.569,2.205c-0.279,0.4-0.658,0.735-0.886,1.171   c-0.262,0.502-0.132,0.945,0.098,1.434c0.161,0.364,0.386,0.718,0.664,1.018c0.568,0.643,1.393,0.932,2.164,1.232   c0.878,0.343,1.628,0.878,2.464,1.296c2.196,1.103,4.467,2.239,6.664,3.396c1.511,0.814,2.828,2.1,3.91,3.825   c1.264,2.014,2.121,4.221,2.625,6.76c0.096,0.45,0.171,0.911,0.236,1.371c0.043,0.214,0.086,0.439,0.129,0.675L52.106,119.072z" fill="#2D3E4F"/><path d="M126.01,119.072l-0.364,0.236c-0.107,0.086-0.214,0.161-0.321,0.246c-0.278,0.214-0.6,0.45-0.986,0.611   c-2.625,1.061-5.496,1.736-8.817,2.121c-2.55,0.289-5.132,0.514-7.414,0.696c-0.675,0.054-1.318,0.129-1.928,0.182l-5.228,0.032   l-5.228-0.032c-0.611-0.054-1.253-0.129-1.928-0.182c-2.282-0.182-4.864-0.407-7.414-0.696c-3.321-0.386-6.192-1.061-8.817-2.121   c-0.386-0.161-0.707-0.396-0.986-0.611c-0.107-0.086-0.214-0.161-0.321-0.246l-0.364-0.236l0.011-1.939   c0.043-0.236,0.086-0.461,0.129-0.675c0.064-0.461,0.139-0.921,0.236-1.371c0.504-2.539,1.361-4.746,2.625-6.76   c1.082-1.725,2.4-3.01,3.91-3.825c2.196-1.157,4.467-2.293,6.664-3.396c0.836-0.418,1.586-0.953,2.464-1.296   c0.771-0.3,1.596-0.589,2.164-1.232c0.279-0.3,0.503-0.654,0.664-1.018c0.19-0.404,0.431-0.933,0.133-1.339   c-0.28-0.382-0.565-0.758-0.837-1.146c-0.546-0.778-1.072-1.571-1.653-2.325c-0.461-0.589-0.953-1.232-1.607-1.639   c-2.314-1.489-2.614-3.589-0.364-4.81c-1.982-5.067-0.182-8.892,4.757-11.602c1.918-1.061,3.835-1.596,5.764-1.586   c1.928-0.011,3.846,0.525,5.764,1.586c4.939,2.71,6.739,6.535,4.757,11.602c2.25,1.221,1.95,3.321-0.364,4.81   c-0.653,0.407-1.146,1.05-1.607,1.639c-0.551,0.715-1.053,1.465-1.569,2.205c-0.279,0.4-0.658,0.735-0.886,1.171   c-0.262,0.502-0.132,0.945,0.098,1.434c0.161,0.364,0.386,0.718,0.664,1.018c0.568,0.643,1.393,0.932,2.164,1.232   c0.878,0.343,1.628,0.878,2.464,1.296c2.196,1.103,4.467,2.239,6.664,3.396c1.511,0.814,2.828,2.1,3.91,3.825   c1.264,2.014,2.121,4.221,2.625,6.76c0.096,0.45,0.171,0.911,0.236,1.371c0.043,0.214,0.086,0.439,0.129,0.675L126.01,119.072z" fill="#2D3E4F"/></g></svg>