<?xml version="1.0" ?><!DOCTYPE svg  PUBLIC '-//W3C//DTD SVG 1.1//EN'  'http://www.w3.org/Graphics/SVG/1.1/DTD/svg11.dtd'><svg enable-background="new 0 0 128 128" height="128px" id="Layer_1" version="1.1" viewBox="0 0 128 128" width="128px" xml:space="preserve" xmlns="http://www.w3.org/2000/svg" xmlns:xlink="http://www.w3.org/1999/xlink"><g><path d="M39.98,101.141c-1.659-1.086-2.571-2.666-2.51-4.333c0.026-0.721-0.365-6.496-0.182-6.747   c0.174-0.226,0.347-0.469,0.521-0.703c0.339-0.486,0.66-0.973,1.016-1.442c0.287-0.356,0.599-0.756,0.999-1.007   c1.424-0.921,1.615-2.214,0.226-2.97c1.224-3.135,0.104-5.497-2.944-7.173c-1.181-0.66-2.371-0.99-3.561-0.981   c-1.19-0.009-2.379,0.321-3.56,0.981c-3.048,1.676-4.168,4.038-2.944,7.173c-1.389,0.756-1.198,2.049,0.226,2.97   c0.399,0.252,0.712,0.651,0.999,1.007c0.356,0.469,0.677,0.955,1.016,1.442c0.174,0.234,0.347,0.478,0.521,0.703   c0.182,0.252-0.208,6.027-0.182,6.747c0.061,1.667-0.851,3.248-2.51,4.333c-0.069,0.078-0.2,0.243-0.295,0.356   c-0.043,0.061-0.087,0.122-0.139,0.182c0.321,0.13,0.625,0.261,0.912,0.399c1.624,0.799,2.961,1.485,4.194,2.145   c0.13,0.069,0.252,0.139,0.382,0.217h1.381h1.381c0.13-0.078,0.252-0.148,0.382-0.217c1.233-0.66,2.57-1.346,4.194-2.145   c0.287-0.139,0.591-0.269,0.912-0.399c-0.052-0.061-0.096-0.122-0.139-0.182C40.179,101.385,40.049,101.22,39.98,101.141z" fill="#2D3E4F"/><path d="M70.435,101.141c-1.659-1.086-2.571-2.666-2.51-4.333c0.026-0.721-0.365-6.496-0.182-6.747   c0.174-0.226,0.347-0.469,0.521-0.703c0.339-0.486,0.66-0.973,1.016-1.442c0.287-0.356,0.599-0.756,0.999-1.007   c1.424-0.921,1.615-2.214,0.226-2.97c1.224-3.135,0.104-5.497-2.944-7.173c-1.181-0.66-2.371-0.99-3.561-0.981   c-1.19-0.009-2.379,0.321-3.561,0.981c-3.048,1.676-4.168,4.038-2.944,7.173c-1.389,0.756-1.198,2.049,0.226,2.97   c0.399,0.252,0.712,0.651,0.999,1.007c0.356,0.469,0.677,0.955,1.016,1.442c0.174,0.234,0.347,0.478,0.521,0.703   c0.182,0.252-0.208,6.027-0.182,6.747c0.061,1.667-0.851,3.248-2.51,4.333c-0.069,0.078-0.2,0.243-0.295,0.356   c-0.043,0.061-0.087,0.122-0.139,0.182c0.321,0.13,0.625,0.261,0.912,0.399c1.624,0.799,2.961,1.485,4.194,2.145   c0.13,0.069,0.252,0.139,0.382,0.217H64h1.381c0.13-0.078,0.252-0.148,0.382-0.217c1.233-0.66,2.57-1.346,4.194-2.145   c0.287-0.139,0.591-0.269,0.912-0.399c-0.052-0.061-0.096-0.122-0.139-0.182C70.635,101.385,70.504,101.22,70.435,101.141z" fill="#2D3E4F"/><path d="M101.303,101.141c-1.659-1.086-2.571-2.666-2.51-4.333c0.026-0.721-0.365-6.496-0.182-6.747   c0.174-0.226,0.347-0.469,0.521-0.703c0.339-0.486,0.66-0.973,1.016-1.442c0.287-0.356,0.599-0.756,0.999-1.007   c1.424-0.921,1.615-2.214,0.226-2.97c1.224-3.135,0.104-5.497-2.944-7.173c-1.181-0.66-2.371-0.99-3.561-0.981   c-1.19-0.009-2.379,0.321-3.561,0.981c-3.048,1.676-4.168,4.038-2.944,7.173c-1.389,0.756-1.198,2.049,0.226,2.97   c0.399,0.252,0.712,0.651,0.999,1.007c0.356,0.469,0.677,0.955,1.016,1.442c0.174,0.234,0.347,0.478,0.521,0.703   c0.182,0.252-0.208,6.027-0.182,6.747c0.061,1.667-0.851,3.248-2.51,4.333c-0.069,0.078-0.2,0.243-0.295,0.356   c-0.043,0.061-0.087,0.122-0.139,0.182c0.321,0.13,0.625,0.261,0.912,0.399c1.624,0.799,2.961,1.485,4.194,2.145   c0.13,0.069,0.252,0.139,0.382,0.217h1.381h1.381c0.13-0.078,0.252-0.148,0.382-0.217c1.233-0.66,2.57-1.346,4.194-2.145   c0.287-0.139,0.591-0.269,0.912-0.399c-0.052-0.061-0.096-0.122-0.139-0.182C101.503,101.385,101.373,101.22,101.303,101.141z" fill="#2D3E4F"/><path d="M126.17,112.729c-0.187-0.857-0.504-1.7-1.036-2.551c-0.734-1.173-1.633-2.045-2.655-2.593   c-1.483-0.796-2.99-1.557-4.501-2.298c-1.018-0.5-2.39-0.848-3.156-1.722c-0.186-0.199-0.343-0.44-0.453-0.687   c-0.151-0.336-0.24-0.631-0.062-0.974c0.151-0.295,0.412-0.521,0.597-0.796c0.35-0.501,0.693-1.009,1.063-1.496   c0.316-0.398,0.652-0.83,1.091-1.111c1.571-1.009,1.777-2.429,0.247-3.259c1.345-3.437,0.124-6.031-3.225-7.87   c-1.297-0.721-2.6-1.084-3.911-1.07c-1.304-0.014-2.607,0.35-3.904,1.07c-3.348,1.839-4.57,4.432-3.225,7.87   c-1.53,0.83-1.324,2.25,0.247,3.259c0.439,0.281,0.775,0.714,1.091,1.111c0.391,0.515,0.748,1.05,1.118,1.578   c0.185,0.261,0.377,0.521,0.57,0.775c0.199,0.275,0.034,0.638-0.089,0.913c-0.11,0.247-0.268,0.487-0.453,0.686   c-0.723,0.776-2.2,1.25-3.142,1.715c-1.489,0.748-3.026,1.516-4.515,2.305c-1.022,0.549-1.921,1.42-2.655,2.593   c-0.104,0.165-0.672,0.216-0.808,0c-0.734-1.173-1.633-2.045-2.655-2.593c-1.483-0.796-2.99-1.557-4.501-2.298   c-1.018-0.5-2.39-0.848-3.156-1.722c-0.186-0.199-0.343-0.44-0.453-0.687c-0.151-0.336-0.24-0.631-0.062-0.974   c0.151-0.295,0.412-0.521,0.597-0.796c0.35-0.501,0.693-1.009,1.063-1.496c0.316-0.398,0.652-0.83,1.091-1.111   c1.571-1.009,1.777-2.429,0.247-3.259c1.345-3.437,0.124-6.031-3.225-7.87c-1.297-0.721-2.6-1.084-3.911-1.07   c-1.304-0.014-2.607,0.35-3.904,1.07c-3.348,1.839-4.57,4.432-3.225,7.87c-1.53,0.83-1.324,2.25,0.247,3.259   c0.439,0.281,0.775,0.714,1.091,1.111c0.391,0.515,0.748,1.05,1.118,1.578c0.185,0.261,0.377,0.521,0.57,0.775   c0.199,0.275,0.034,0.638-0.089,0.913c-0.11,0.247-0.268,0.487-0.453,0.686c-0.723,0.776-2.2,1.25-3.142,1.715   c-1.489,0.748-3.026,1.516-4.515,2.305c-1.022,0.549-1.921,1.42-2.655,2.593c-0.104,0.165-0.672,0.216-0.808,0   c-0.734-1.173-1.633-2.045-2.655-2.593c-1.483-0.796-2.99-1.557-4.501-2.298c-1.018-0.5-2.39-0.848-3.156-1.722   c-0.186-0.199-0.343-0.44-0.453-0.687c-0.151-0.336-0.24-0.631-0.062-0.974c0.151-0.295,0.412-0.521,0.597-0.796   c0.35-0.501,0.693-1.009,1.063-1.496c0.316-0.398,0.652-0.83,1.091-1.111c1.571-1.009,1.777-2.429,0.247-3.259   c1.345-3.437,0.124-6.031-3.225-7.87c-1.297-0.721-2.6-1.084-3.911-1.07c-1.304-0.014-2.607,0.35-3.904,1.07   c-3.348,1.839-4.57,4.432-3.225,7.87c-1.53,0.83-1.324,2.25,0.247,3.259c0.439,0.281,0.775,0.714,1.091,1.111   c0.391,0.515,0.748,1.05,1.118,1.578c0.185,0.261,0.377,0.521,0.57,0.775c0.199,0.275,0.034,0.638-0.089,0.913   c-0.11,0.247-0.268,0.487-0.453,0.686c-0.723,0.776-2.2,1.25-3.142,1.715c-1.489,0.748-3.026,1.516-4.515,2.305   c-1.022,0.549-1.921,1.42-2.655,2.593c-0.104,0.165-0.672,0.216-0.808,0c-0.734-1.173-1.633-2.045-2.655-2.593   c-1.483-0.796-2.99-1.557-4.501-2.298c-1.018-0.5-2.39-0.848-3.156-1.722c-0.186-0.199-0.343-0.44-0.453-0.687   c-0.151-0.336-0.24-0.631-0.062-0.974c0.151-0.295,0.412-0.521,0.597-0.796c0.35-0.501,0.693-1.009,1.063-1.496   c0.316-0.398,0.652-0.83,1.091-1.111c1.571-1.009,1.777-2.429,0.247-3.259c1.345-3.437,0.124-6.031-3.225-7.87   c-1.297-0.721-2.6-1.084-3.911-1.07c-1.304-0.014-2.607,0.35-3.904,1.07c-3.348,1.839-4.57,4.432-3.225,7.87   c-1.53,0.83-1.324,2.25,0.247,3.259c0.439,0.281,0.775,0.714,1.091,1.111c0.391,0.515,0.748,1.05,1.118,1.578   c0.185,0.261,0.377,0.521,0.57,0.775c0.199,0.275,0.034,0.638-0.089,0.913c-0.11,0.247-0.268,0.487-0.453,0.686   c-0.723,0.776-2.2,1.25-3.142,1.715c-1.489,0.748-3.026,1.516-4.515,2.305c-1.022,0.549-1.921,1.42-2.655,2.594   c-1.561,2.495-1.454,4.715-1.454,7.566l124.846,0C126.417,115.944,126.516,114.314,126.17,112.729z" fill="#2D3E4F"/><path d="M49.555,10.259H47.83H36.01c-4.899,0-9.813-0.015-14.726,0.015c-0.311,0.003-0.6,0.062-0.873,0.149   c-0.057,0.015-0.112,0.032-0.167,0.049c-0.025,0.009-0.048,0.019-0.073,0.029c-1.011,0.361-1.592,1.149-1.634,2.288   c-0.001,0.016,0.002,0.03,0.002,0.046c-0.001,0.014-0.005,0.027-0.005,0.042c-0.003,0.103,0.011,0.201,0.02,0.301   c0.005,0.059,0.004,0.121,0.012,0.179c0.006,0.038,0.017,0.074,0.024,0.111c0.201,1.144,1.038,1.942,2.317,2.114   c0.255,0.039,0.522,0.067,0.808,0.098c0.138,0.018,0.283,0.038,0.435,0.061v45.789c-0.526,0.073-1.038,0.102-1.536,0.219   c-1.375,0.336-2.15,1.389-2.077,2.793c0.073,1.316,1.038,2.354,2.413,2.515c0.512,0.058,1.038,0.029,1.565,0.029h26.967   l2.791-0.006l2.791,0.006h53.29c0.526,0,1.053,0.029,1.565-0.029c1.375-0.161,2.34-1.199,2.413-2.515   c0.073-1.404-0.702-2.457-2.077-2.793c-0.497-0.117-1.009-0.146-1.536-0.219V15.741c0.152-0.023,0.297-0.043,0.434-0.061   c0.286-0.031,0.554-0.059,0.809-0.098c1.279-0.172,2.116-0.97,2.317-2.114c0.008-0.037,0.019-0.073,0.024-0.111   c0.008-0.058,0.007-0.12,0.012-0.179c0.008-0.1,0.023-0.198,0.02-0.301c0-0.014-0.005-0.027-0.005-0.042   c0-0.016,0.003-0.03,0.002-0.046c-0.042-1.139-0.622-1.927-1.634-2.288c-0.024-0.01-0.048-0.02-0.073-0.029   c-0.054-0.018-0.11-0.034-0.167-0.049c-0.273-0.087-0.562-0.146-0.873-0.149c-4.914-0.029-9.827-0.015-14.726-0.015H56.717h-1.726   H49.555z M67.192,61.545H37.355H25.981V16.252c0.072-0.431,0.274-0.569,0.8-0.607c0.158-0.009,0.314-0.016,0.468-0.017   c0.121-0.001,0.237-0.002,0.381-0.002h75.61c0.144,0,0.26,0.001,0.381,0.002c0.154,0.002,0.31,0.009,0.468,0.017   c0.526,0.038,0.728,0.176,0.8,0.607v45.293H67.192z" fill="#2E79BE"/><rect fill="#2E79BE" height="16.301" width="5.667" x="40.044" y="40.45"/><rect fill="#2E79BE" height="23.705" width="5.667" x="48.848" y="33.046"/><rect fill="#2E79BE" height="26.272" width="5.667" x="66.881" y="30.478"/><rect fill="#2E79BE" height="21.4" width="5.667" x="57.764" y="35.35"/><rect fill="#2E79BE" height="19.709" width="5.667" x="75.823" y="37.041"/><rect fill="#2E79BE" height="23.705" width="5.667" x="85.155" y="33.046"/><path d="M92.095,25.013c-0.034-0.55-0.286-1.053-0.721-1.408c-0.355-0.298-0.767-0.469-1.225-0.481   c-0.046-0.011-0.126-0.011-0.195-0.011h-0.092c-0.217,0.023-0.378,0.057-0.572,0.103c-0.584,0.218-1.019,0.733-1.225,1.317   c-0.023,0.092-0.046,0.126-0.057,0.183c0,0-0.057,0.034-0.16,0.08c-1.191,0.447-8.368,3.08-8.368,3.08   c-0.298-0.218-0.63-0.401-1.007-0.424c-0.172-0.011-0.309-0.011-0.481,0c-0.011,0-5.781-7.04-5.781-7.04   c0.011-0.034,0.011-0.046,0.034-0.08c0.034-0.126,0.057-0.217,0.069-0.343c0-0.046,0.011-0.069,0-0.114   c0.011-0.183,0-0.366-0.034-0.527c-0.012-0.103-0.034-0.206-0.069-0.286c-0.034-0.114-0.08-0.217-0.137-0.32   c-0.057-0.103-0.126-0.195-0.195-0.298c-0.172-0.195-0.366-0.366-0.595-0.492c-0.023-0.011-0.034-0.023-0.069-0.034   c-0.08-0.046-0.16-0.092-0.252-0.114c-0.034-0.011-0.092-0.046-0.149-0.046c-0.069-0.023-0.16-0.034-0.241-0.057   c-0.092-0.011-0.206-0.023-0.309-0.023c-0.126,0-0.24,0.011-0.343,0.023c-0.103,0.023-0.183,0.046-0.286,0.057   c-0.24,0.091-0.469,0.217-0.675,0.401c-0.469,0.389-0.756,0.962-0.778,1.545v0.046c0,0.046,0,0.103,0.011,0.16v0.034   c0,0.034,0,0.057,0.012,0.069h-0.012l-6.972,5.838c-0.515-0.16-1.065-0.137-1.568,0.092c-0.126,0.069-0.218,0.126-0.309,0.195   c-0.012,0.011-0.034,0.023-0.069,0.046l-8.494-3.102c-0.092-0.469-0.321-0.893-0.687-1.191c-0.641-0.504-1.534-0.618-2.278-0.275   c-0.504,0.24-0.893,0.653-1.065,1.179c-0.172,0.446-0.126,0.962,0.057,1.408c0,0-5.724,7.04-5.781,7.04   c-0.71-0.034-1.408,0.217-1.82,0.733c-0.721,0.893-0.561,2.209,0.332,2.919c0.424,0.343,0.962,0.504,1.511,0.446   c0.561-0.057,1.042-0.343,1.385-0.756c0.355-0.435,0.504-0.984,0.446-1.545c-0.011-0.126-0.023-0.217-0.08-0.343   c-0.011-0.034-0.011-0.046-0.023-0.08c0,0,5.747-7.052,5.781-7.052c0.149,0.011,0.298,0.011,0.458,0   c0.378-0.034,0.721-0.195,1.007-0.424c0,0,8.517,3.114,8.529,3.137c0.023,0.057,0.034,0.114,0.069,0.183   c0.217,0.607,0.641,1.11,1.225,1.317c0.195,0.057,0.366,0.08,0.572,0.114h0.103c0.069,0,0.137,0,0.195-0.012   c0.446-0.023,0.87-0.206,1.213-0.481c0.435-0.366,0.675-0.87,0.733-1.431c0.011-0.114,0.011-0.217,0-0.343   c-0.034-0.034-0.034-0.057-0.034-0.092c0,0,6.983-5.838,6.995-5.838c0.069,0.011,0.137,0.034,0.206,0.046   c0.195,0.034,0.424,0.057,0.63,0.034c0.057,0,5.804,7.04,5.804,7.04c-0.183,0.458-0.229,0.962-0.057,1.42   c0.172,0.504,0.561,0.927,1.065,1.168c0.744,0.332,1.637,0.24,2.278-0.286c0.366-0.286,0.595-0.71,0.687-1.191l8.494-3.102   c0.012,0.011,0.023,0.023,0.057,0.046c0.332,0.217,0.733,0.343,1.168,0.343c1.179,0,2.129-0.927,2.164-2.083   C92.118,25.093,92.118,25.059,92.095,25.013z M40.832,34.583c-0.744,0-1.305-0.595-1.305-1.305c0-0.71,0.561-1.305,1.305-1.305   c0.71,0,1.282,0.595,1.282,1.305C42.114,33.988,41.541,34.583,40.832,34.583z M48.742,24.796c-0.721,0-1.305-0.595-1.305-1.305   c0-0.721,0.584-1.305,1.305-1.305c0.71,0,1.305,0.584,1.305,1.305C50.047,24.2,49.452,24.796,48.742,24.796z M60.545,29.123   c-0.733,0-1.305-0.595-1.305-1.305c0-0.721,0.572-1.305,1.305-1.305c0.71,0,1.305,0.584,1.305,1.305   C61.85,28.528,61.254,29.123,60.545,29.123z M70.55,21.006c-0.069,0.034-0.149,0.034-0.217,0.034   c-0.023,0.011-0.057,0.011-0.08,0.011c-0.733,0-1.305-0.595-1.305-1.305c0-0.492,0.263-0.927,0.687-1.133   c0.057-0.046,0.114-0.057,0.183-0.08c0.069-0.034,0.137-0.057,0.229-0.057c0.069-0.034,0.137-0.034,0.206-0.034   c0.023-0.011,0.057-0.011,0.08-0.011c0.733,0,1.305,0.584,1.305,1.305C71.638,20.377,71.18,20.926,70.55,21.006z M78.197,30.829   c-0.721,0-1.305-0.572-1.305-1.294s0.584-1.305,1.305-1.317c0.71,0,1.294,0.595,1.294,1.305   C79.491,30.233,78.907,30.829,78.197,30.829z M90,26.49c-0.733,0-1.305-0.595-1.305-1.305c0-0.721,0.561-1.305,1.294-1.305   c0.721,0,1.305,0.584,1.305,1.305C91.305,25.895,90.71,26.49,90,26.49z" fill="#2D3E4F"/></g></svg>