<svg width="2773" height="1499" xmlns="http://www.w3.org/2000/svg" xmlns:xlink="http://www.w3.org/1999/xlink" overflow="hidden"><defs><clipPath id="clip0"><rect x="765" y="485" width="2773" height="1499"/></clipPath><clipPath id="clip1"><rect x="1024" y="1041" width="197" height="208"/></clipPath><clipPath id="clip2"><rect x="1024" y="1041" width="197" height="208"/></clipPath><clipPath id="clip3"><rect x="831" y="878" width="966" height="429"/></clipPath><clipPath id="clip4"><rect x="831" y="878" width="966" height="429"/></clipPath><clipPath id="clip5"><rect x="1014" y="1346" width="224" height="156"/></clipPath><clipPath id="clip6"><rect x="1014" y="1346" width="224" height="156"/></clipPath><clipPath id="clip7"><rect x="821" y="863" width="1487" height="708"/></clipPath><clipPath id="clip8"><rect x="821" y="863" width="1487" height="708"/></clipPath></defs><g clip-path="url(#clip0)" transform="translate(-765 -485)"><rect x="767" y="490" width="2770" height="1493" fill="#FFFFFF" fill-opacity="1"/><path d="M2115 890 2082.5 890 2082.5 1008 2017.5 1008 2017.5 890 1985 890 2050 825Z" fill="#BEBFBF" fill-rule="evenodd" fill-opacity="1"/><path d="M3004 1167 3004 1199.5 3093 1199.5 3093 1264.5 3004 1264.5 3004 1297 2939 1232Z" fill="#BEBFBF" fill-rule="evenodd" fill-opacity="1"/><path d="M3082.5 879.862C3082.5 874.691 3086.69 870.5 3091.86 870.5L3370.14 870.5C3375.31 870.5 3379.5 874.691 3379.5 879.862L3379.5 1598.14C3379.5 1603.31 3375.31 1607.5 3370.14 1607.5L3091.86 1607.5C3086.69 1607.5 3082.5 1603.31 3082.5 1598.14Z" stroke="#000000" stroke-width="4.58333" stroke-linecap="butt" stroke-linejoin="miter" stroke-miterlimit="8" stroke-opacity="1" fill="#FFFFFF" fill-rule="evenodd" fill-opacity="1"/><path d="M925.5 1011.59C925.5 1001.6 933.6 993.5 943.593 993.5L2901.41 993.5C2911.4 993.5 2919.5 1001.6 2919.5 1011.59L2919.5 1549.41C2919.5 1559.4 2911.4 1567.5 2901.41 1567.5L943.593 1567.5C933.6 1567.5 925.5 1559.4 925.5 1549.41Z" stroke="#000000" stroke-width="4.58333" stroke-linecap="butt" stroke-linejoin="miter" stroke-miterlimit="8" stroke-opacity="1" fill="#FFFFFF" fill-rule="evenodd" fill-opacity="1"/><path d="M2115 1635 2082.5 1635 2082.5 1724 2017.5 1724 2017.5 1635 1985 1635 2050 1570Z" fill="#BEBFBF" fill-rule="evenodd" fill-opacity="1"/><path d="M823.5 608.344C823.5 584.129 843.13 564.5 867.344 564.5L3440.66 564.5C3464.87 564.5 3484.5 584.129 3484.5 608.344L3484.5 1911.66C3484.5 1935.87 3464.87 1955.5 3440.66 1955.5L867.344 1955.5C843.13 1955.5 823.5 1935.87 823.5 1911.66Z" stroke="#000000" stroke-width="4.58333" stroke-linecap="butt" stroke-linejoin="miter" stroke-miterlimit="8" stroke-opacity="1" fill="none" fill-rule="evenodd"/><g clip-path="url(#clip1)"><g clip-path="url(#clip2)"><g clip-path="url(#clip3)"><g clip-path="url(#clip4)"><path d="M0 57.228 961.815 57.228 961.815 483.793 0 483.793Z" fill="#FFFFFF" fill-rule="nonzero" fill-opacity="1" transform="matrix(1.00312 0 0 1 831.674 822.224)"/><path d="M434.26 93.6423C434.26 84.4209 441.735 76.9452 450.957 76.9452L749.389 76.9452C758.612 76.9452 766.086 84.4209 766.086 93.6423L766.086 447.379C766.086 456.6 758.612 464.076 749.389 464.076L450.957 464.076C441.735 464.076 434.26 456.6 434.26 447.379Z" fill="#7F7F7F" fill-rule="evenodd" fill-opacity="1" transform="matrix(1.00312 0 0 1 831.674 822.224)"/><text fill="#FFFFFF" fill-opacity="1" font-family="Noto Sans,Noto Sans_MSFontService,sans-serif" font-style="normal" font-variant="normal" font-weight="700" font-stretch="normal" font-size="42" text-anchor="start" direction="ltr" writing-mode="lr-tb" unicode-bidi="normal" text-decoration="none" transform="matrix(0.482408 0 0 0.480908 1405.37 927)">Thing</text><path d="M445.801 139.259C445.801 132.201 451.523 126.479 458.581 126.479L741.766 126.479C748.821 126.479 754.544 132.201 754.544 139.259L754.544 167.56C754.544 174.618 748.821 180.34 741.766 180.34L458.581 180.34C451.523 180.34 445.801 174.618 445.801 167.56Z" fill="#005A9C" fill-rule="evenodd" fill-opacity="1" transform="matrix(1.00312 0 0 1 831.674 822.224)"/><text fill="#FFFFFF" fill-opacity="1" font-family="MS Gothic,MS Gothic_MSFontService,sans-serif" font-style="normal" font-variant="normal" font-weight="400" font-stretch="normal" font-size="42" text-anchor="start" direction="ltr" writing-mode="lr-tb" unicode-bidi="normal" text-decoration="none" transform="matrix(0.482408 0 0 0.480908 1413.09 983)">動作</text><path d="M445.801 207.797C445.801 200.336 451.85 194.287 459.312 194.287L741.03 194.287C748.485 194.287 754.544 200.336 754.544 207.797L754.544 234.638C754.544 242.099 748.494 248.148 741.03 248.148L459.312 248.148C451.85 248.148 445.801 242.099 445.801 234.638Z" fill="#4A7B7C" fill-rule="evenodd" fill-opacity="1" transform="matrix(1.00312 0 0 1 831.674 822.224)"/><text fill="#FFFFFF" fill-opacity="1" font-family="MS Gothic,MS Gothic_MSFontService,sans-serif" font-style="normal" font-variant="normal" font-weight="400" font-stretch="normal" font-size="42" text-anchor="start" direction="ltr" writing-mode="lr-tb" unicode-bidi="normal" text-decoration="none" transform="matrix(0.482408 0 0 0.480908 1312.07 1051)">相互作用<tspan fill="#FFFFFF" fill-opacity="1" font-family="MS Gothic,MS Gothic_MSFontService,sans-serif" font-style="normal" font-variant="normal" font-weight="400" font-stretch="normal" font-size="42" text-anchor="start" direction="ltr" writing-mode="lr-tb" unicode-bidi="normal" text-decoration="none" x="168" y="0">の</tspan><tspan fill="#FFFFFF" fill-opacity="1" font-family="MS Gothic,MS Gothic_MSFontService,sans-serif" font-style="normal" font-variant="normal" font-weight="400" font-stretch="normal" font-size="42" text-anchor="start" direction="ltr" writing-mode="lr-tb" unicode-bidi="normal" text-decoration="none" x="210" y="0">アフォーダンス</tspan></text><path d="M445.801 275.605C445.801 268.143 451.85 262.095 459.312 262.095L741.03 262.095C748.485 262.095 754.544 268.143 754.544 275.605L754.544 302.446C754.544 309.907 748.494 315.956 741.03 315.956L459.312 315.956C451.85 315.956 445.801 309.907 445.801 302.446Z" fill="#4A7B7C" fill-rule="evenodd" fill-opacity="1" transform="matrix(1.00312 0 0 1 831.674 822.224)"/><text fill="#FFFFFF" fill-opacity="1" font-family="Noto Sans,Noto Sans_MSFontService,sans-serif" font-style="normal" font-variant="normal" font-weight="400" font-stretch="normal" font-size="42" text-anchor="start" direction="ltr" writing-mode="lr-tb" unicode-bidi="normal" text-decoration="none" transform="matrix(0.482408 0 0 0.480908 1371.08 1119)">Data Schema</text><path d="M422.477 451.813C415.041 451.813 409.012 450.447 409.012 448.762L409.012 326.221C409.012 324.536 402.983 323.17 395.546 323.17 402.983 323.17 409.012 321.804 409.012 320.119L409.012 197.577C409.012 195.893 415.041 194.527 422.477 194.527" stroke="#000000" stroke-width="2.40454" stroke-linecap="butt" stroke-linejoin="round" stroke-miterlimit="10" stroke-opacity="1" fill="none" fill-rule="nonzero" transform="matrix(1.00312 0 0 1 831.674 822.224)"/><path d="M195.729 223.141 384.726 223.141 384.726 384.552 346.56 422.718 195.729 422.718Z" fill="#E57709" fill-rule="evenodd" fill-opacity="1" transform="matrix(1.00312 0 0 1 831.674 822.224)"/><path d="M346.56 422.718 354.193 392.18 384.731 384.547Z" fill="#B86007" fill-rule="evenodd" fill-opacity="1" transform="matrix(1.00312 0 0 1 831.674 822.224)"/><path d="M257.455 286.868 317.445 252.392 317.582 321.583Z" stroke="#FFFFFF" stroke-width="6.01134" stroke-linecap="butt" stroke-linejoin="round" stroke-miterlimit="10" stroke-opacity="1" fill="none" fill-rule="nonzero" transform="matrix(1.00312 0 0 1 831.674 822.224)"/><path d="M305.548 258.93C301.744 252.34 304.002 243.912 310.592 240.108 317.183 236.303 325.611 238.56 329.416 245.151 333.221 251.742 330.962 260.17 324.372 263.974 317.782 267.778 309.353 265.521 305.548 258.93ZM245.272 293.649C241.468 287.059 243.725 278.631 250.316 274.827 256.907 271.023 265.335 273.28 269.139 279.87 272.943 286.46 270.686 294.889 264.095 298.693 257.504 302.497 249.076 300.24 245.272 293.649ZM305.549 314.437C309.355 307.846 317.782 305.588 324.373 309.393 330.964 313.198 333.222 321.626 329.417 328.216 325.612 334.805 317.184 337.064 310.593 333.259 304.002 329.454 301.744 321.026 305.549 314.437Z" fill="#FFFFFF" fill-rule="evenodd" fill-opacity="1" transform="matrix(1.00312 0 0 1 831.674 822.224)"/><text fill="#FFFFFF" fill-opacity="1" font-family="Noto Sans,Noto Sans_MSFontService,sans-serif" font-style="normal" font-variant="normal" font-weight="400" font-stretch="normal" font-size="42" text-anchor="start" direction="ltr" writing-mode="lr-tb" unicode-bidi="normal" text-decoration="none" transform="matrix(0.482408 0 0 0.480908 1069.41 1185)">WoT Thing<tspan fill="#FFFFFF" fill-opacity="1" font-family="Noto Sans,Noto Sans_MSFontService,sans-serif" font-style="normal" font-variant="normal" font-weight="400" font-stretch="normal" font-size="42" text-anchor="start" direction="ltr" writing-mode="lr-tb" unicode-bidi="normal" text-decoration="none" x="-7.55209" y="49.9056">Description</tspan></text><path d="M445.801 410.872C445.801 403.337 451.909 397.23 459.444 397.23L740.901 397.23C748.436 397.23 754.544 403.337 754.544 410.872L754.544 437.93C754.544 445.464 748.436 451.572 740.901 451.572L459.444 451.572C451.909 451.572 445.801 445.465 445.801 437.93Z" fill="#00B050" fill-rule="evenodd" fill-opacity="1" transform="matrix(1.00312 0 0 1 831.674 822.224)"/><text fill="#FFFFFF" fill-opacity="1" font-family="MS Gothic,MS Gothic_MSFontService,sans-serif" font-style="normal" font-variant="normal" font-weight="400" font-stretch="normal" font-size="42" text-anchor="start" direction="ltr" writing-mode="lr-tb" unicode-bidi="normal" text-decoration="none" transform="matrix(0.482408 0 0 0.480908 1311.03 1255)">プロトコルバインディング</text><path d="M445.801 343.413C445.801 335.951 451.85 329.903 459.312 329.903L741.03 329.903C748.485 329.903 754.544 335.951 754.544 343.413L754.544 370.254C754.544 377.715 748.494 383.764 741.03 383.764L459.312 383.764C451.85 383.764 445.801 377.715 445.801 370.254Z" fill="#FFFF00" fill-rule="evenodd" fill-opacity="1" transform="matrix(1.00312 0 0 1 831.674 822.224)"/><text fill="#000000" fill-opacity="1" font-family="MS Gothic,MS Gothic_MSFontService,sans-serif" font-style="normal" font-variant="normal" font-weight="400" font-stretch="normal" font-size="42" text-anchor="start" direction="ltr" writing-mode="lr-tb" unicode-bidi="normal" text-decoration="none" transform="matrix(0.482408 0 0 0.480908 1331.42 1187)">セキュリティ<tspan fill="#000000" fill-opacity="1" font-family="MS Gothic,MS Gothic_MSFontService,sans-serif" font-style="normal" font-variant="normal" font-weight="400" font-stretch="normal" font-size="42" text-anchor="start" direction="ltr" writing-mode="lr-tb" unicode-bidi="normal" text-decoration="none" x="252" y="0">構成情報</tspan></text></g></g></g></g><text fill="#000000" fill-opacity="1" font-family="Arial,Arial_MSFontService,sans-serif" font-style="normal" font-variant="normal" font-weight="400" font-stretch="normal" font-size="83" text-anchor="start" direction="ltr" writing-mode="lr-tb" unicode-bidi="normal" text-decoration="none" transform="matrix(1 0 0 1 2340.5 1445)">Scripting API</text><text fill="#000000" fill-opacity="1" font-family="Arial,Arial_MSFontService,sans-serif" font-style="normal" font-variant="normal" font-weight="400" font-stretch="normal" font-size="83" text-anchor="start" direction="ltr" writing-mode="lr-tb" unicode-bidi="normal" text-decoration="none" transform="matrix(6.12323e-17 1 -1 6.12323e-17 3251.9 901)">Security and <tspan fill="#000000" fill-opacity="1" font-family="Arial,Arial_MSFontService,sans-serif" font-style="normal" font-variant="normal" font-weight="400" font-stretch="normal" font-size="83" text-anchor="start" direction="ltr" writing-mode="lr-tb" unicode-bidi="normal" text-decoration="none" x="-6.062e-15" y="99">Privacy Guidelines</tspan></text><path d="M3292 1678 3259.5 1678 3259.5 1740 3194.5 1740 3194.5 1678 3162 1678 3227 1616Z" fill="#BEBFBF" fill-rule="evenodd" fill-opacity="1"/><path d="M925.5 1712.24C925.5 1709.07 928.068 1706.5 931.236 1706.5L3377.76 1706.5C3380.93 1706.5 3383.5 1709.07 3383.5 1712.24L3383.5 1882.76C3383.5 1885.93 3380.93 1888.5 3377.76 1888.5L931.236 1888.5C928.068 1888.5 925.5 1885.93 925.5 1882.76Z" stroke="#000000" stroke-width="4.58333" stroke-linecap="butt" stroke-linejoin="miter" stroke-miterlimit="8" stroke-opacity="1" fill="#FFFFFF" fill-rule="evenodd" fill-opacity="1"/><text fill="#000000" fill-opacity="1" font-family="Arial,Arial_MSFontService,sans-serif" font-style="normal" font-variant="normal" font-weight="700" font-stretch="normal" font-size="83" text-anchor="start" direction="ltr" writing-mode="lr-tb" unicode-bidi="normal" text-decoration="none" transform="matrix(1 0 0 1 2340.5 1167)">Discovery</text><text fill="#000000" fill-opacity="1" font-family="Arial,Arial_MSFontService,sans-serif" font-style="normal" font-variant="normal" font-weight="700" font-stretch="normal" font-size="83" text-anchor="start" direction="ltr" writing-mode="lr-tb" unicode-bidi="normal" text-decoration="none" transform="matrix(1 -2.44929e-16 2.44929e-16 1 2032.02 761)">Profile</text><path d="M916.5 666.07C916.5 663.546 918.546 661.5 921.071 661.5L3368.93 661.5C3371.45 661.5 3373.5 663.546 3373.5 666.07L3373.5 801.929C3373.5 804.454 3371.45 806.5 3368.93 806.5L921.071 806.5C918.546 806.5 916.5 804.454 916.5 801.929Z" stroke="#000000" stroke-width="4.58333" stroke-linecap="butt" stroke-linejoin="miter" stroke-miterlimit="8" stroke-opacity="1" fill="none" fill-rule="evenodd"/><text fill="#000000" fill-opacity="1" font-family="Arial,Arial_MSFontService,sans-serif" font-style="normal" font-variant="normal" font-weight="400" font-stretch="normal" font-size="83" text-anchor="start" direction="ltr" writing-mode="lr-tb" unicode-bidi="normal" text-decoration="none" transform="matrix(1 0 0 1 1663.8 1825)">Use Cases and Requirements</text><g clip-path="url(#clip5)"><g clip-path="url(#clip6)"><g clip-path="url(#clip7)"><g clip-path="url(#clip8)"><path d="M0 67.5545 1484.71 67.5545 1484.71 767.597 0 767.597Z" fill="#FFFFFF" fill-rule="nonzero" fill-opacity="1" transform="matrix(1 0 0 1.00755 822.265 796.387)"/><path d="M135.474 208.51 167.683 190 167.757 227.148Z" stroke="#FFFFFF" stroke-width="3.48017" stroke-linecap="butt" stroke-linejoin="round" stroke-miterlimit="10" stroke-opacity="1" fill="none" fill-rule="nonzero" transform="matrix(1 0 0 1.00755 822.265 796.387)"/><path d="M161.296 193.51C159.255 189.971 160.466 185.448 164.004 183.404 167.542 181.362 172.066 182.574 174.11 186.112 176.152 189.651 174.939 194.175 171.402 196.218 167.863 198.259 163.34 197.047 161.296 193.51Z" fill="#FFFFFF" fill-rule="evenodd" fill-opacity="1" transform="matrix(1 0 0 1.00755 822.265 796.387)"/><path d="M128.934 212.151C126.893 208.612 128.105 204.088 131.642 202.044 135.181 200.003 139.704 201.216 141.748 204.752 143.789 208.291 142.577 212.814 139.04 214.858 135.502 216.9 130.978 215.688 128.934 212.151ZM161.296 223.312C163.34 219.775 167.864 218.562 171.403 220.604 174.94 222.648 176.152 227.172 174.111 230.71 172.066 234.248 167.543 235.459 164.004 233.418 160.468 231.374 159.256 226.851 161.296 223.312Z" fill="#FFFFFF" fill-rule="evenodd" fill-opacity="1" transform="matrix(1 0 0 1.00755 822.265 796.387)"/><path d="M571.615 137.499C571.615 120.19 585.647 106.157 602.957 106.157L1163.11 106.157C1180.42 106.157 1194.45 120.189 1194.45 137.499L1194.45 697.652C1194.45 714.961 1180.42 728.994 1163.11 728.994L602.957 728.994C585.647 728.994 571.615 714.962 571.615 697.652Z" fill="#7F7F7F" fill-rule="evenodd" fill-opacity="1" transform="matrix(1 0 0 1.00755 822.265 796.387)"/><text fill="#FFFFFF" fill-opacity="1" font-family="Noto Sans,Noto Sans_MSFontService,sans-serif" font-style="normal" font-variant="normal" font-weight="700" font-stretch="normal" font-size="42" text-anchor="start" direction="ltr" writing-mode="lr-tb" unicode-bidi="normal" text-decoration="none" transform="matrix(0.742357 0 0 0.747965 1641.22 947)">Servient</text><path d="M589.431 349.49C589.431 340.148 597.003 332.576 606.345 332.576L1159.72 332.576C1169.06 332.576 1176.64 340.148 1176.64 349.49L1176.64 605.181C1176.64 614.522 1169.06 622.095 1159.72 622.095L606.345 622.095C597.003 622.095 589.431 614.523 589.431 605.181Z" fill="#FFFFFF" fill-rule="evenodd" fill-opacity="1" transform="matrix(1 0 0 1.00755 822.265 796.387)"/><text fill="#000000" fill-opacity="1" font-family="MS Gothic,MS Gothic_MSFontService,sans-serif" font-style="normal" font-variant="normal" font-weight="400" font-stretch="normal" font-size="38" text-anchor="start" direction="ltr" writing-mode="lr-tb" unicode-bidi="normal" text-decoration="none" transform="matrix(0.742357 0 0 0.747965 1489.05 1169)">スクリプティング<tspan fill="#000000" fill-opacity="1" font-family="Noto Sans,Noto Sans_MSFontService,sans-serif" font-style="normal" font-variant="normal" font-weight="400" font-stretch="normal" font-size="38" text-anchor="start" direction="ltr" writing-mode="lr-tb" unicode-bidi="normal" text-decoration="none" x="304" y="0">WoT</tspan><tspan fill="#000000" fill-opacity="1" font-family="MS Gothic,MS Gothic_MSFontService,sans-serif" font-style="normal" font-variant="normal" font-weight="400" font-stretch="normal" font-size="38" text-anchor="start" direction="ltr" writing-mode="lr-tb" unicode-bidi="normal" text-decoration="none" x="383" y="0">ランタイム</tspan></text><path d="M607.248 488.322C607.248 482.255 612.167 477.335 618.235 477.335L775.911 477.335C781.976 477.335 786.898 482.254 786.898 488.322L786.898 510.147C786.898 516.215 781.976 521.134 775.911 521.134L618.235 521.134C612.167 521.134 607.248 516.216 607.248 510.147Z" fill="#558ED5" fill-rule="evenodd" fill-opacity="1" transform="matrix(1 0 0 1.00755 822.265 796.387)"/><text fill="#FFFFFF" fill-opacity="1" font-family="MS Gothic,MS Gothic_MSFontService,sans-serif" font-style="normal" font-variant="normal" font-weight="400" font-stretch="normal" font-size="29" text-anchor="start" direction="ltr" writing-mode="lr-tb" unicode-bidi="normal" text-decoration="none" transform="matrix(0.742357 0 0 0.747965 1435 1308)">公開<tspan fill="#FFFFFF" fill-opacity="1" font-family="MS Gothic,MS Gothic_MSFontService,sans-serif" font-style="normal" font-variant="normal" font-weight="400" font-stretch="normal" font-size="29" text-anchor="start" direction="ltr" writing-mode="lr-tb" unicode-bidi="normal" text-decoration="none" x="58.0001" y="0">された</tspan><tspan fill="#FFFFFF" fill-opacity="1" font-family="Noto Sans,Noto Sans_MSFontService,sans-serif" font-style="normal" font-variant="normal" font-weight="400" font-stretch="normal" font-size="29" text-anchor="start" direction="ltr" writing-mode="lr-tb" unicode-bidi="normal" text-decoration="none" x="145" y="0">Thing</tspan></text><path d="M792.837 488.322C792.837 482.254 797.759 477.335 803.824 477.335L962.243 477.335C968.308 477.335 973.23 482.254 973.23 488.322L973.23 510.147C973.23 516.216 968.308 521.134 962.243 521.134L803.824 521.134C797.759 521.134 792.837 516.216 792.837 510.147Z" fill="#558ED5" fill-rule="evenodd" fill-opacity="1" transform="matrix(1 0 0 1.00755 822.265 796.387)"/><text fill="#FFFFFF" fill-opacity="1" font-family="MS Gothic,MS Gothic_MSFontService,sans-serif" font-style="normal" font-variant="normal" font-weight="400" font-stretch="normal" font-size="29" text-anchor="start" direction="ltr" writing-mode="lr-tb" unicode-bidi="normal" text-decoration="none" transform="matrix(0.742357 0 0 0.747965 1622.51 1308)">利用<tspan fill="#FFFFFF" fill-opacity="1" font-family="MS Gothic,MS Gothic_MSFontService,sans-serif" font-style="normal" font-variant="normal" font-weight="400" font-stretch="normal" font-size="29" text-anchor="start" direction="ltr" writing-mode="lr-tb" unicode-bidi="normal" text-decoration="none" x="58.0001" y="0">される</tspan><tspan fill="#FFFFFF" fill-opacity="1" font-family="Noto Sans,Noto Sans_MSFontService,sans-serif" font-style="normal" font-variant="normal" font-weight="400" font-stretch="normal" font-size="29" text-anchor="start" direction="ltr" writing-mode="lr-tb" unicode-bidi="normal" text-decoration="none" x="145" y="0">Thing</tspan></text><path d="M979.168 488.322C979.168 482.255 984.09 477.335 990.155 477.335L1147.83 477.335C1153.9 477.335 1158.82 482.254 1158.82 488.322L1158.82 510.147C1158.82 516.215 1153.9 521.134 1147.83 521.134L990.155 521.134C984.09 521.134 979.168 516.216 979.168 510.147Z" fill="#558ED5" fill-rule="evenodd" fill-opacity="1" transform="matrix(1 0 0 1.00755 822.265 796.387)"/><text fill="#FFFFFF" fill-opacity="1" font-family="MS Gothic,MS Gothic_MSFontService,sans-serif" font-style="normal" font-variant="normal" font-weight="400" font-stretch="normal" font-size="29" text-anchor="start" direction="ltr" writing-mode="lr-tb" unicode-bidi="normal" text-decoration="none" transform="matrix(0.742357 0 0 0.747965 1810.13 1308)">利用<tspan fill="#FFFFFF" fill-opacity="1" font-family="MS Gothic,MS Gothic_MSFontService,sans-serif" font-style="normal" font-variant="normal" font-weight="400" font-stretch="normal" font-size="29" text-anchor="start" direction="ltr" writing-mode="lr-tb" unicode-bidi="normal" text-decoration="none" x="57.9999" y="0">される</tspan><tspan fill="#FFFFFF" fill-opacity="1" font-family="Noto Sans,Noto Sans_MSFontService,sans-serif" font-style="normal" font-variant="normal" font-weight="400" font-stretch="normal" font-size="29" text-anchor="start" direction="ltr" writing-mode="lr-tb" unicode-bidi="normal" text-decoration="none" x="145" y="0">Thing</tspan></text><path d="M596.623 315.13C601.619 315.129 605.669 311.079 605.67 306.083L596.623 306.083C599.121 306.083 601.146 304.057 601.146 301.559 601.146 299.061 599.121 297.035 596.623 297.035L605.67 297.035 605.67 179.419C605.671 174.422 609.721 170.372 614.718 170.371L1165.72 170.371C1170.72 170.371 1174.78 174.422 1174.78 179.419 1174.78 184.415 1170.73 188.466 1165.72 188.466L1156.68 188.466 1156.68 306.083C1156.68 311.079 1152.63 315.13 1147.62 315.13ZM623.765 179.419C623.764 184.415 619.713 188.465 614.717 188.466 612.219 188.466 610.194 186.441 610.194 183.943 610.194 181.445 612.219 179.419 614.717 179.419Z" fill="#FFFFFF" fill-rule="evenodd" fill-opacity="1" transform="matrix(1 0 0 1.00755 822.265 796.387)"/><path d="M623.765 179.419C623.764 184.415 619.713 188.465 614.717 188.466 612.219 188.466 610.194 186.441 610.194 183.943 610.194 181.445 612.219 179.419 614.717 179.419ZM605.67 306.083C605.669 311.079 601.619 315.129 596.623 315.13 591.626 315.13 587.576 311.079 587.575 306.083 587.577 301.086 591.627 297.036 596.623 297.035 599.121 297.035 601.146 299.061 601.146 301.559 601.146 304.057 599.121 306.082 596.623 306.082Z" fill="#CDCDCD" fill-rule="evenodd" fill-opacity="1" transform="matrix(1 0 0 1.00755 822.265 796.387)"/><path d="M605.67 297.035 605.67 179.419C605.671 174.422 609.721 170.372 614.718 170.371L1165.72 170.371C1170.72 170.371 1174.78 174.422 1174.78 179.419 1174.78 184.415 1170.73 188.466 1165.72 188.466L1156.68 188.466 1156.68 306.083C1156.68 311.079 1152.63 315.13 1147.62 315.13L596.623 315.13C591.626 315.13 587.576 311.079 587.575 306.083 587.577 301.086 591.627 297.036 596.623 297.035ZM614.717 170.371C619.714 170.372 623.764 174.422 623.765 179.419 623.764 184.415 619.713 188.465 614.717 188.466 612.219 188.466 610.194 186.441 610.194 183.943 610.194 181.445 612.219 179.419 614.717 179.419L623.765 179.419M1156.69 188.466 614.717 188.466M596.623 297.035C599.121 297.035 601.146 299.062 601.146 301.559 601.146 304.057 599.121 306.083 596.623 306.083L605.67 306.083M596.623 315.13C601.619 315.129 605.669 311.079 605.67 306.083L605.67 297.035" stroke="#000000" stroke-width="0.742357" stroke-linecap="butt" stroke-linejoin="round" stroke-miterlimit="10" stroke-opacity="1" fill="none" fill-rule="nonzero" transform="matrix(1 0 0 1.00755 822.265 796.387)"/><path d="M623.58 244.851C623.58 235.082 631.501 227.161 641.27 227.161L1122.57 227.161C1132.34 227.161 1140.26 235.082 1140.26 244.851L1140.26 279.995C1140.26 289.764 1132.34 297.685 1122.57 297.685L641.27 297.685C631.501 297.685 623.58 289.764 623.58 279.995Z" fill="#005A9C" fill-rule="evenodd" fill-opacity="1" transform="matrix(1 0 0 1.00755 822.265 796.387)"/><text fill="#FFFFFF" fill-opacity="1" font-family="MS Gothic,MS Gothic_MSFontService,sans-serif" font-style="normal" font-variant="normal" font-weight="400" font-stretch="normal" font-size="42" text-anchor="start" direction="ltr" writing-mode="lr-tb" unicode-bidi="normal" text-decoration="none" transform="matrix(0.742357 0 0 0.747965 1624.26 1072)">動作<tspan fill="#FFFFFF" fill-opacity="1" font-family="MS Gothic,MS Gothic_MSFontService,sans-serif" font-style="normal" font-variant="normal" font-weight="400" font-stretch="normal" font-size="42" text-anchor="start" direction="ltr" writing-mode="lr-tb" unicode-bidi="normal" text-decoration="none" x="83.9999" y="0">の</tspan><tspan fill="#FFFFFF" fill-opacity="1" font-family="MS Gothic,MS Gothic_MSFontService,sans-serif" font-style="normal" font-variant="normal" font-weight="400" font-stretch="normal" font-size="42" text-anchor="start" direction="ltr" writing-mode="lr-tb" unicode-bidi="normal" text-decoration="none" x="126" y="0">実装</tspan><tspan fill="#000000" fill-opacity="1" font-family="MS Gothic,MS Gothic_MSFontService,sans-serif" font-style="normal" font-variant="normal" font-weight="400" font-stretch="normal" font-size="29" text-anchor="start" direction="ltr" writing-mode="lr-tb" unicode-bidi="normal" text-decoration="none" x="-95.2301" y="-80.2177">アプリケーション</tspan><tspan fill="#000000" fill-opacity="1" font-family="MS Gothic,MS Gothic_MSFontService,sans-serif" font-style="normal" font-variant="normal" font-weight="400" font-stretch="normal" font-size="29" text-anchor="start" direction="ltr" writing-mode="lr-tb" unicode-bidi="normal" text-decoration="none" x="136.77" y="-80.2177">の</tspan><tspan fill="#000000" fill-opacity="1" font-family="MS Gothic,MS Gothic_MSFontService,sans-serif" font-style="normal" font-variant="normal" font-weight="400" font-stretch="normal" font-size="29" text-anchor="start" direction="ltr" writing-mode="lr-tb" unicode-bidi="normal" text-decoration="none" x="165.77" y="-80.2177">スクリプト</tspan></text><path d="M587.204 658.173C587.204 648.498 595.048 640.654 604.724 640.654L1001.74 640.654C1011.41 640.654 1019.26 648.497 1019.26 658.173L1019.26 692.916C1019.26 702.591 1011.41 710.435 1001.74 710.435L604.724 710.435C595.049 710.435 587.204 702.592 587.204 692.916Z" fill="#00B050" fill-rule="evenodd" fill-opacity="1" transform="matrix(1 0 0 1.00755 822.265 796.387)"/><text fill="#FFFFFF" fill-opacity="1" font-family="MS Gothic,MS Gothic_MSFontService,sans-serif" font-style="normal" font-variant="normal" font-weight="400" font-stretch="normal" font-size="38" text-anchor="start" direction="ltr" writing-mode="lr-tb" unicode-bidi="normal" text-decoration="none" transform="matrix(0.742357 0 0 0.747965 1452.29 1488)">プロトコルスタックの<tspan fill="#FFFFFF" fill-opacity="1" font-family="MS Gothic,MS Gothic_MSFontService,sans-serif" font-style="normal" font-variant="normal" font-weight="400" font-stretch="normal" font-size="38" text-anchor="start" direction="ltr" writing-mode="lr-tb" unicode-bidi="normal" text-decoration="none" x="380" y="0">実装</tspan></text><path d="M607.248 408.522C607.248 399.378 614.661 391.964 623.805 391.964L1143.01 391.964C1152.15 391.968 1159.56 399.38 1159.56 408.522L1159.56 445.188C1159.56 454.33 1152.15 461.741 1143.01 461.746L623.805 461.746C614.661 461.746 607.248 454.333 607.248 445.188Z" fill="#558ED5" fill-rule="evenodd" fill-opacity="1" transform="matrix(1 0 0 1.00755 822.265 796.387)"/><text fill="#FFFFFF" fill-opacity="1" font-family="Noto Sans,Noto Sans_MSFontService,sans-serif" font-style="normal" font-variant="normal" font-weight="400" font-stretch="normal" font-size="42" text-anchor="start" direction="ltr" writing-mode="lr-tb" unicode-bidi="normal" text-decoration="none" transform="matrix(0.742357 0 0 0.747965 1527.91 1238)">WoT<tspan fill="#FFFFFF" fill-opacity="1" font-family="MS Gothic,MS Gothic_MSFontService,sans-serif" font-style="normal" font-variant="normal" font-weight="400" font-stretch="normal" font-size="42" text-anchor="start" direction="ltr" writing-mode="lr-tb" unicode-bidi="normal" text-decoration="none" x="87.0001" y="0">スクリプティング</tspan><tspan fill="#FFFFFF" fill-opacity="1" font-family="Noto Sans,Noto Sans_MSFontService,sans-serif" font-style="normal" font-variant="normal" font-weight="400" font-stretch="normal" font-size="42" text-anchor="start" direction="ltr" writing-mode="lr-tb" unicode-bidi="normal" text-decoration="none" x="423" y="0">API</tspan></text><path d="M607.619 553.115C607.619 543.448 615.456 535.61 625.124 535.61L1142.43 535.61C1152.09 535.61 1159.93 543.447 1159.93 553.115L1159.93 587.889C1159.93 597.556 1152.09 605.393 1142.43 605.393L625.124 605.393C615.457 605.393 607.619 597.556 607.619 587.889Z" stroke="#000000" stroke-width="0.742357" stroke-linecap="butt" stroke-linejoin="round" stroke-miterlimit="10" stroke-opacity="1" fill="#FFFF00" fill-rule="evenodd" fill-opacity="1" transform="matrix(1 0 0 1.00755 822.265 796.387)"/><text fill="#000000" fill-opacity="1" font-family="Noto Sans,Noto Sans_MSFontService,sans-serif" font-style="normal" font-variant="normal" font-weight="400" font-stretch="normal" font-size="42" text-anchor="start" direction="ltr" writing-mode="lr-tb" unicode-bidi="normal" text-decoration="none" transform="matrix(0.742357 0 0 0.747965 1554.41 1383)">Private Security <tspan fill="#000000" fill-opacity="1" font-family="Noto Sans,Noto Sans_MSFontService,sans-serif" font-style="normal" font-variant="normal" font-weight="400" font-stretch="normal" font-size="42" text-anchor="start" direction="ltr" writing-mode="lr-tb" unicode-bidi="normal" text-decoration="none" x="314.583" y="0">Data</tspan></text><path d="M558.623 331.833 558.623 350.207 589.431 350.207 589.431 386.953 558.623 386.953 558.623 405.327 527.816 368.58Z" fill="#BFBFBF" fill-rule="evenodd" fill-opacity="1" transform="matrix(1 0 0 1.00755 822.265 796.387)"/><text fill="#000000" fill-opacity="1" font-family="MS Gothic,MS Gothic_MSFontService,sans-serif" font-style="normal" font-variant="normal" font-weight="400" font-stretch="normal" font-size="38" text-anchor="start" direction="ltr" writing-mode="lr-tb" unicode-bidi="normal" text-decoration="none" transform="matrix(0.742357 0 0 0.747965 1097.49 950)">公開</text><path d="M1208.93 356.331 1208.93 374.705 1238.99 374.705 1238.99 411.451 1208.93 411.451 1208.93 429.824 1178.86 393.078ZM1208.93 526.331 1208.93 544.89 1238.99 544.89 1238.99 582.008 1208.93 582.008 1208.93 600.567 1178.86 563.449Z" fill="#BFBFBF" fill-rule="evenodd" fill-opacity="1" transform="matrix(1 0 0 1.00755 822.265 796.387)"/><text fill="#000000" fill-opacity="1" font-family="MS Gothic,MS Gothic_MSFontService,sans-serif" font-style="normal" font-variant="normal" font-weight="400" font-stretch="normal" font-size="38" text-anchor="start" direction="ltr" writing-mode="lr-tb" unicode-bidi="normal" text-decoration="none" transform="matrix(0.742357 0 0 0.747965 2105.64 1101)">利用</text><path d="M1238.99 316.986 1391.92 316.986 1391.92 438.437 1361.19 469.169 1238.99 469.169Z" fill="#984807" fill-rule="evenodd" fill-opacity="1" transform="matrix(1 0 0 1.00755 822.265 796.387)"/><path d="M1361.19 469.169 1367.33 444.584 1391.92 438.437Z" fill="#7A3A06" fill-rule="evenodd" fill-opacity="1" transform="matrix(1 0 0 1.00755 822.265 796.387)"/><text fill="#FFFFFF" fill-opacity="1" font-family="Noto Sans,Noto Sans_MSFontService,sans-serif" font-style="normal" font-variant="normal" font-weight="400" font-stretch="normal" font-size="29" text-anchor="start" direction="ltr" writing-mode="lr-tb" unicode-bidi="normal" text-decoration="none" transform="matrix(0.742357 0 0 0.747965 2083.37 1217)">WoT Thing<tspan fill="#FFFFFF" fill-opacity="1" font-family="Noto Sans,Noto Sans_MSFontService,sans-serif" font-style="normal" font-variant="normal" font-weight="400" font-stretch="normal" font-size="29" text-anchor="start" direction="ltr" writing-mode="lr-tb" unicode-bidi="normal" text-decoration="none" x="-5.46882" y="34.761">Description</tspan></text><path d="M1297.39 361.641 1329.61 343.131 1329.68 380.28Z" stroke="#FFFFFF" stroke-width="3.48017" stroke-linecap="butt" stroke-linejoin="round" stroke-miterlimit="10" stroke-opacity="1" fill="none" fill-rule="nonzero" transform="matrix(1 0 0 1.00755 822.265 796.387)"/><path d="M1323.21 346.641C1321.16 343.103 1322.39 338.579 1325.92 336.536 1329.46 334.493 1333.98 335.704 1336.03 339.243 1338.07 342.782 1336.86 347.306 1333.32 349.349 1329.78 351.392 1325.26 350.181 1323.21 346.641ZM1290.84 365.274C1288.8 361.735 1290.01 357.212 1293.55 355.168 1297.09 353.125 1301.61 354.336 1303.65 357.876 1305.69 361.416 1304.48 365.939 1300.94 367.982 1297.4 370.024 1292.89 368.815 1290.85 365.283 1290.84 365.28 1290.84 365.277 1290.84 365.274ZM1323.21 376.434C1325.25 372.895 1329.77 371.683 1333.3 373.726 1336.84 375.77 1338.05 380.293 1336.01 383.833 1333.96 387.371 1329.44 388.584 1325.9 386.541 1322.37 384.498 1321.15 379.972 1323.2 376.434Z" fill="#FFFFFF" fill-rule="evenodd" fill-opacity="1" transform="matrix(1 0 0 1.00755 822.265 796.387)"/><path d="M1238.99 486.986 1391.92 486.986 1391.92 608.437 1361.19 639.169 1238.99 639.169Z" fill="#984807" fill-rule="evenodd" fill-opacity="1" transform="matrix(1 0 0 1.00755 822.265 796.387)"/><path d="M1361.19 639.169 1367.33 614.584 1391.92 608.437Z" fill="#7A3A06" fill-rule="evenodd" fill-opacity="1" transform="matrix(1 0 0 1.00755 822.265 796.387)"/><text fill="#FFFFFF" fill-opacity="1" font-family="Noto Sans,Noto Sans_MSFontService,sans-serif" font-style="normal" font-variant="normal" font-weight="400" font-stretch="normal" font-size="29" text-anchor="start" direction="ltr" writing-mode="lr-tb" unicode-bidi="normal" text-decoration="none" transform="matrix(0.742357 0 0 0.747965 2083.37 1388)">WoT Thing<tspan fill="#FFFFFF" fill-opacity="1" font-family="Noto Sans,Noto Sans_MSFontService,sans-serif" font-style="normal" font-variant="normal" font-weight="400" font-stretch="normal" font-size="29" text-anchor="start" direction="ltr" writing-mode="lr-tb" unicode-bidi="normal" text-decoration="none" x="-5.46882" y="34.761">Description</tspan></text><path d="M1297.39 531.678 1329.61 513.167 1329.68 550.316Z" stroke="#FFFFFF" stroke-width="3.48017" stroke-linecap="butt" stroke-linejoin="round" stroke-miterlimit="10" stroke-opacity="1" fill="none" fill-rule="nonzero" transform="matrix(1 0 0 1.00755 822.265 796.387)"/><path d="M1323.21 516.679C1321.16 513.14 1322.39 508.615 1325.92 506.572 1329.46 504.529 1333.98 505.741 1336.03 509.28 1338.07 512.82 1336.86 517.343 1333.32 519.387 1329.78 521.43 1325.26 520.217 1323.21 516.679ZM1290.84 535.319C1288.8 531.781 1290.01 527.257 1293.55 525.214 1297.09 523.17 1301.61 524.382 1303.65 527.921 1305.69 531.461 1304.48 535.984 1300.94 538.027 1297.4 540.069 1292.89 538.86 1290.85 535.328 1290.84 535.325 1290.84 535.322 1290.84 535.319ZM1323.21 546.479C1325.25 542.941 1329.77 541.728 1333.3 543.771 1336.84 545.815 1338.05 550.338 1336.01 553.878 1333.96 557.416 1329.44 558.629 1325.9 556.586 1322.37 554.543 1321.15 550.018 1323.2 546.479Z" fill="#FFFFFF" fill-rule="evenodd" fill-opacity="1" transform="matrix(1 0 0 1.00755 822.265 796.387)"/><path d="M1034.1 656.874C1034.1 647.096 1042.03 639.169 1051.81 639.169L1157.45 639.169C1167.22 639.169 1175.15 647.096 1175.15 656.874L1175.15 691.988C1175.15 701.766 1167.22 709.693 1157.45 709.693L1051.81 709.693C1042.03 709.693 1034.1 701.766 1034.1 691.988Z" fill="#000000" fill-rule="evenodd" fill-opacity="1" transform="matrix(1 0 0 1.00755 822.265 796.387)"/><text fill="#FFFFFF" fill-opacity="1" font-family="MS Gothic,MS Gothic_MSFontService,sans-serif" font-style="normal" font-variant="normal" font-weight="400" font-stretch="normal" font-size="42" text-anchor="start" direction="ltr" writing-mode="lr-tb" unicode-bidi="normal" text-decoration="none" transform="matrix(0.742357 0 0 0.747965 1864.67 1488)">システム</text><path d="M86.8557 170 527.073 170 527.073 449.041 456.465 519.65 86.8557 519.65Z" fill="#E57709" fill-rule="evenodd" fill-opacity="1" transform="matrix(1 0 0 1.00755 822.265 796.387)"/><path d="M456.465 519.65 470.587 463.164 527.073 449.041Z" fill="#B86007" fill-rule="evenodd" fill-opacity="1" transform="matrix(1 0 0 1.00755 822.265 796.387)"/><text fill="#FFFFFF" fill-opacity="1" font-family="Noto Sans,Noto Sans_MSFontService,sans-serif" font-style="normal" font-variant="normal" font-weight="400" font-stretch="normal" font-size="42" text-anchor="start" direction="ltr" writing-mode="lr-tb" unicode-bidi="normal" text-decoration="none" transform="matrix(0.742357 0 0 0.747965 990.768 1016)">WoT<tspan fill="#FFFFFF" fill-opacity="1" font-family="Noto Sans,Noto Sans_MSFontService,sans-serif" font-style="normal" font-variant="normal" font-weight="400" font-stretch="normal" font-size="42" text-anchor="start" direction="ltr" writing-mode="lr-tb" unicode-bidi="normal" text-decoration="none" x="98.177" y="0">Thing Description</tspan></text><path d="M114.234 211.376 146.442 192.866 146.517 230.015Z" stroke="#FFFFFF" stroke-width="3.48017" stroke-linecap="butt" stroke-linejoin="round" stroke-miterlimit="10" stroke-opacity="1" fill="none" fill-rule="nonzero" transform="matrix(1 0 0 1.00755 822.265 796.387)"/><path d="M140.054 196.376C138.014 192.837 139.226 188.314 142.763 186.27 146.301 184.228 150.825 185.44 152.869 188.977 154.911 192.516 153.698 197.04 150.161 199.084 146.622 201.125 142.098 199.913 140.054 196.376ZM107.694 215.009C105.652 211.47 106.864 206.947 110.401 204.902 113.94 202.861 118.464 204.073 120.507 207.61 122.549 211.149 121.337 215.673 117.799 217.717 114.261 219.758 109.737 218.545 107.694 215.009ZM140.055 226.17C142.099 222.633 146.622 221.421 150.161 223.462 153.698 225.506 154.911 230.03 152.869 233.568 150.825 237.105 146.302 238.317 142.763 236.277 139.226 234.233 138.014 229.709 140.055 226.17Z" fill="#FFFFFF" fill-rule="evenodd" fill-opacity="1" transform="matrix(1 0 0 1.00755 822.265 796.387)"/><path d="M103.188 408.932C103.189 403.251 107.793 398.647 113.474 398.646L499.713 398.646C505.393 398.647 509.998 403.251 509.999 408.932L509.999 433.643C509.998 439.324 505.393 443.928 499.713 443.929L113.474 443.929C107.793 443.928 103.189 439.324 103.188 433.643Z" fill="#FFFF00" fill-rule="evenodd" fill-opacity="1" transform="matrix(1 0 0 1.00755 822.265 796.387)"/><text fill="#000000" fill-opacity="1" font-family="Noto Sans,Noto Sans_MSFontService,sans-serif" font-style="normal" font-variant="normal" font-weight="400" font-stretch="normal" font-size="38" text-anchor="start" direction="ltr" writing-mode="lr-tb" unicode-bidi="normal" text-decoration="none" transform="matrix(0.742357 0 0 0.747965 967.573 1232)">Public Security Metadata</text><path d="M103.188 307.93C103.188 301.862 108.106 296.943 114.174 296.943L498.27 296.943C504.338 296.943 509.257 301.862 509.257 307.93L509.257 329.755C509.257 335.823 504.338 340.742 498.27 340.742L114.174 340.742C108.106 340.742 103.188 335.823 103.188 329.755Z" fill="#4A7B7C" fill-rule="evenodd" fill-opacity="1" transform="matrix(1 0 0 1.00755 822.265 796.387)"/><text fill="#FFFFFF" fill-opacity="1" font-family="MS Gothic,MS Gothic_MSFontService,sans-serif" font-style="normal" font-variant="normal" font-weight="400" font-stretch="normal" font-size="38" text-anchor="start" direction="ltr" writing-mode="lr-tb" unicode-bidi="normal" text-decoration="none" transform="matrix(0.742357 0 0 0.747965 960.024 1129)">相互作用<tspan fill="#FFFFFF" fill-opacity="1" font-family="MS Gothic,MS Gothic_MSFontService,sans-serif" font-style="normal" font-variant="normal" font-weight="400" font-stretch="normal" font-size="38" text-anchor="start" direction="ltr" writing-mode="lr-tb" unicode-bidi="normal" text-decoration="none" x="152" y="0">の</tspan><tspan fill="#FFFFFF" fill-opacity="1" font-family="MS Gothic,MS Gothic_MSFontService,sans-serif" font-style="normal" font-variant="normal" font-weight="400" font-stretch="normal" font-size="38" text-anchor="start" direction="ltr" writing-mode="lr-tb" unicode-bidi="normal" text-decoration="none" x="190" y="0">アフォーダンス</tspan></text><path d="M103.93 258.006C103.93 252.041 108.766 247.205 114.731 247.205L498.455 247.205C504.42 247.205 509.257 252.04 509.257 258.006L509.257 279.462C509.257 285.426 504.421 290.263 498.455 290.263L114.731 290.263C108.766 290.263 103.93 285.427 103.93 279.462Z" fill="#7F7F7F" fill-rule="evenodd" fill-opacity="1" transform="matrix(1 0 0 1.00755 822.265 796.387)"/><text fill="#FFFFFF" fill-opacity="1" font-family="MS Gothic,MS Gothic_MSFontService,sans-serif" font-style="normal" font-variant="normal" font-weight="400" font-stretch="normal" font-size="38" text-anchor="start" direction="ltr" writing-mode="lr-tb" unicode-bidi="normal" text-decoration="none" transform="matrix(0.742357 0 0 0.747965 1003.77 1078)">一般的<tspan fill="#FFFFFF" fill-opacity="1" font-family="MS Gothic,MS Gothic_MSFontService,sans-serif" font-style="normal" font-variant="normal" font-weight="400" font-stretch="normal" font-size="38" text-anchor="start" direction="ltr" writing-mode="lr-tb" unicode-bidi="normal" text-decoration="none" x="114" y="0">な</tspan><tspan fill="#FFFFFF" fill-opacity="1" font-family="MS Gothic,MS Gothic_MSFontService,sans-serif" font-style="normal" font-variant="normal" font-weight="400" font-stretch="normal" font-size="38" text-anchor="start" direction="ltr" writing-mode="lr-tb" unicode-bidi="normal" text-decoration="none" x="152" y="0">メタデータ</tspan></text><path d="M102.445 356.107C102.446 350.902 106.666 346.681 111.872 346.681L499.83 346.681C505.036 346.681 509.256 350.902 509.257 356.107L509.257 381.796C509.256 387.001 505.036 391.221 499.83 391.222L111.872 391.222C106.666 391.221 102.446 387.001 102.445 381.796Z" fill="#4A7B7C" fill-rule="evenodd" fill-opacity="1" transform="matrix(1 0 0 1.00755 822.265 796.387)"/><text fill="#FFFFFF" fill-opacity="1" font-family="Noto Sans,Noto Sans_MSFontService,sans-serif" font-style="normal" font-variant="normal" font-weight="400" font-stretch="normal" font-size="38" text-anchor="start" direction="ltr" writing-mode="lr-tb" unicode-bidi="normal" text-decoration="none" transform="matrix(0.742357 0 0 0.747965 1035.49 1179)">Data Schema</text><path d="M103.93 460.779C103.931 455.574 108.151 451.354 113.356 451.353L501.315 451.353C506.52 451.354 510.741 455.574 510.741 460.779L510.741 486.468C510.741 491.673 506.52 495.894 501.315 495.894L113.356 495.894C108.151 495.894 103.931 491.673 103.93 486.468Z" fill="#00B050" fill-rule="evenodd" fill-opacity="1" transform="matrix(1 0 0 1.00755 822.265 796.387)"/><text fill="#FFFFFF" fill-opacity="1" font-family="MS Gothic,MS Gothic_MSFontService,sans-serif" font-style="normal" font-variant="normal" font-weight="400" font-stretch="normal" font-size="33" text-anchor="start" direction="ltr" writing-mode="lr-tb" unicode-bidi="normal" text-decoration="none" transform="matrix(0.742357 0 0 0.747965 964.043 1285)">プロトコルバインディング</text><path d="M457.292 519.65 527.073 519.65 526.776 449.126 457.292 519.65Z" fill="#FFFFFF" fill-rule="evenodd" fill-opacity="1" transform="matrix(1 0 0 1.00755 822.265 796.387)"/><path d="M457.292 519.65 470.032 463.406 527.073 449.126 457.292 519.65Z" fill="#BD6008" fill-rule="evenodd" fill-opacity="1" transform="matrix(1 0 0 1.00755 822.265 796.387)"/><path d="M310.305 602.088 310.305 593.922 302.139 593.922 302.139 602.088ZM310.305 585.757 310.305 577.591 302.139 577.591 302.139 585.757ZM310.305 569.425 310.305 561.259 302.139 561.259 302.139 569.425ZM310.305 553.093 310.305 544.927 302.139 544.927 302.139 553.093ZM310.305 536.761 310.305 528.595 302.139 528.595 302.139 536.761ZM310.305 520.429 310.305 515.195 302.139 515.195 302.139 520.429ZM318.471 519.279 306.222 494.781 293.973 519.279Z" fill="#BFBFBF" fill-rule="nonzero" fill-opacity="1" transform="matrix(1 0 0 1.00755 822.265 796.387)"/><path d="M200.436 686.394C291.51 704.891 291.51 667.898 382.573 667.898L382.573 571.746 200.436 571.746ZM215.442 571.746 215.442 559.28 396.337 559.28 396.337 656.035C389.46 656.035 382.575 656.706 382.575 656.706L382.575 571.746ZM229.547 559.28 229.547 547.117 412.008 547.117 412.008 643.57C404.172 643.57 396.337 644.072 396.337 644.072L396.337 559.28Z" fill="#00B050" fill-rule="evenodd" fill-opacity="1" transform="matrix(1 0 0 1.00755 822.265 796.387)"/><path d="M200.436 571.746 382.573 571.746 382.573 667.898C291.509 667.898 291.509 704.892 200.436 686.395ZM215.442 571.746 215.442 559.28 396.337 559.28 396.337 656.035C389.46 656.035 382.575 656.706 382.575 656.706M229.547 559.28 229.547 547.117 412.008 547.117 412.008 643.57C404.172 643.57 396.337 644.072 396.337 644.072" stroke="#FFFFFF" stroke-width="2.96943" stroke-linecap="butt" stroke-linejoin="round" stroke-miterlimit="10" stroke-opacity="1" fill="none" fill-rule="nonzero" transform="matrix(1 0 0 1.00755 822.265 796.387)"/><text fill="#FFFFFF" fill-opacity="1" font-family="MS Gothic,MS Gothic_MSFontService,sans-serif" font-style="normal" font-variant="normal" font-weight="400" font-stretch="normal" font-size="33" text-anchor="start" direction="ltr" writing-mode="lr-tb" unicode-bidi="normal" text-decoration="none" transform="matrix(0.742357 0 0 0.747965 1028.01 1412)">バインディング<tspan fill="#FFFFFF" fill-opacity="1" font-family="MS Gothic,MS Gothic_MSFontService,sans-serif" font-style="normal" font-variant="normal" font-weight="400" font-stretch="normal" font-size="33" text-anchor="start" direction="ltr" writing-mode="lr-tb" unicode-bidi="normal" text-decoration="none" x="15.4271" y="49.4676">テンプレート</tspan></text></g></g></g></g><rect x="867" y="497" width="561" height="134" fill="#FFFFFF" fill-opacity="1"/><text fill="#000000" fill-opacity="1" font-family="Arial,Arial_MSFontService,sans-serif" font-style="normal" font-variant="normal" font-weight="700" font-stretch="normal" font-size="83" text-anchor="start" direction="ltr" writing-mode="lr-tb" unicode-bidi="normal" text-decoration="none" transform="matrix(1 0 0 1 900.154 594)">Architecture<tspan fill="#000000" fill-opacity="1" font-family="Arial,Arial_MSFontService,sans-serif" font-style="normal" font-variant="normal" font-weight="700" font-stretch="normal" font-size="83" text-anchor="start" direction="ltr" writing-mode="lr-tb" unicode-bidi="normal" text-decoration="none" x="411.751" y="573">Thing Description</tspan><tspan fill="#000000" fill-opacity="1" font-family="Arial,Arial_MSFontService,sans-serif" font-style="normal" font-variant="normal" font-weight="400" font-stretch="normal" font-size="83" text-anchor="start" direction="ltr" writing-mode="lr-tb" unicode-bidi="normal" text-decoration="none" x="415.273" y="851">Binding Templates</tspan></text></g></svg>