<svg width="2943" height="1384" xmlns="http://www.w3.org/2000/svg" xmlns:xlink="http://www.w3.org/1999/xlink" overflow="hidden"><defs><clipPath id="clip0"><rect x="742" y="440" width="2943" height="1384"/></clipPath><clipPath id="clip1"><rect x="1029" y="742" width="205" height="215"/></clipPath><clipPath id="clip2"><rect x="1029" y="742" width="205" height="215"/></clipPath><clipPath id="clip3"><rect x="831" y="574" width="996" height="443"/></clipPath><clipPath id="clip4"><rect x="831" y="574" width="996" height="443"/></clipPath><clipPath id="clip5"><rect x="1008" y="1084" width="246" height="169"/></clipPath><clipPath id="clip6"><rect x="1008" y="1084" width="246" height="169"/></clipPath><clipPath id="clip7"><rect x="798" y="562" width="1627" height="767"/></clipPath><clipPath id="clip8"><rect x="798" y="562" width="1627" height="767"/></clipPath></defs><g clip-path="url(#clip0)" transform="translate(-742 -440)"><rect x="745" y="440" width="2939" height="1384" fill="#FFFFFF" fill-opacity="1"/><path d="M3102 820 3102 852.5 3164 852.5 3164 917.5 3102 917.5 3102 950 3040 885Z" fill="#BEBFBF" fill-rule="evenodd" fill-opacity="1"/><path d="M3159.5 610.082C3159.5 604.79 3163.79 600.5 3169.08 600.5L3453.92 600.5C3459.21 600.5 3463.5 604.79 3463.5 610.082L3463.5 1341.92C3463.5 1347.21 3459.21 1351.5 3453.92 1351.5L3169.08 1351.5C3163.79 1351.5 3159.5 1347.21 3159.5 1341.92Z" stroke="#000000" stroke-width="4.58333" stroke-linecap="butt" stroke-linejoin="miter" stroke-miterlimit="8" stroke-opacity="1" fill="#FFFFFF" fill-rule="evenodd" fill-opacity="1"/><path d="M1994.5 758.492C1994.5 752.973 1998.97 748.5 2004.49 748.5L2301.51 748.5C2307.03 748.5 2311.5 752.973 2311.5 758.492L2311.5 1257.51C2311.5 1263.03 2307.03 1267.5 2301.51 1267.5L2004.49 1267.5C1998.97 1267.5 1994.5 1263.03 1994.5 1257.51Z" stroke="#767171" stroke-width="4.58333" stroke-linecap="butt" stroke-linejoin="miter" stroke-miterlimit="8" stroke-opacity="1" fill="none" fill-rule="evenodd"/><path d="M925.5 683.019C925.5 671.687 934.687 662.5 946.019 662.5L2102.98 662.5C2114.31 662.5 2123.5 671.687 2123.5 683.019L2123.5 1292.98C2123.5 1304.31 2114.31 1313.5 2102.98 1313.5L946.019 1313.5C934.687 1313.5 925.5 1304.31 925.5 1292.98Z" stroke="#000000" stroke-width="4.58333" stroke-linecap="butt" stroke-linejoin="miter" stroke-miterlimit="8" stroke-opacity="1" fill="#FFFFFF" fill-rule="evenodd" fill-opacity="1"/><path d="M1717 1389 1684.5 1389 1684.5 1478 1619.5 1478 1619.5 1389 1587 1389 1652 1324Z" fill="#BEBFBF" fill-rule="evenodd" fill-opacity="1"/><path d="M823.5 600.402C823.5 580.574 839.574 564.5 859.402 564.5L3571.6 564.5C3591.43 564.5 3607.5 580.574 3607.5 600.402L3607.5 1667.6C3607.5 1687.43 3591.43 1703.5 3571.6 1703.5L859.402 1703.5C839.574 1703.5 823.5 1687.43 823.5 1667.6Z" stroke="#000000" stroke-width="4.58333" stroke-linecap="butt" stroke-linejoin="miter" stroke-miterlimit="8" stroke-opacity="1" fill="none" fill-rule="evenodd"/><g clip-path="url(#clip1)"><g clip-path="url(#clip2)"><g clip-path="url(#clip3)"><g clip-path="url(#clip4)"><path d="M0 59.155 994.202 59.155 994.202 500.084 0 500.084Z" fill="#FFFFFF" fill-rule="nonzero" fill-opacity="1" transform="matrix(1 0 0 1.00014 831.816 515.792)"/><path d="M448.882 96.7955C448.882 87.2636 456.61 79.5362 466.142 79.5362L774.623 79.5362C784.157 79.5362 791.882 87.2636 791.882 96.7955L791.882 462.443C791.882 471.975 784.157 479.703 774.623 479.703L466.142 479.703C456.61 479.703 448.882 471.975 448.882 462.443Z" fill="#7F7F7F" fill-rule="evenodd" fill-opacity="1" transform="matrix(1 0 0 1.00014 831.816 515.792)"/><text fill="#FFFFFF" fill-opacity="1" font-family="Noto Sans,Noto Sans_MSFontService,sans-serif" font-style="normal" font-variant="normal" font-weight="700" font-stretch="normal" font-size="42" text-anchor="start" direction="ltr" writing-mode="lr-tb" unicode-bidi="normal" text-decoration="none" transform="matrix(0.497101 0 0 0.497171 1422.98 624)">Thing</text><path d="M460.813 143.948C460.813 136.652 466.727 130.738 474.023 130.738L766.744 130.738C774.036 130.738 779.952 136.652 779.952 143.948L779.952 173.202C779.952 180.498 774.036 186.413 766.744 186.413L474.023 186.413C466.727 186.413 460.813 180.498 460.813 173.202Z" fill="#005A9C" fill-rule="evenodd" fill-opacity="1" transform="matrix(1 0 0 1.00014 831.816 515.792)"/><text fill="#FFFFFF" fill-opacity="1" font-family="MS Gothic,MS Gothic_MSFontService,sans-serif" font-style="normal" font-variant="normal" font-weight="400" font-stretch="normal" font-size="42" text-anchor="start" direction="ltr" writing-mode="lr-tb" unicode-bidi="normal" text-decoration="none" transform="matrix(0.497101 0 0 0.497171 1430.94 682)">動作</text><path d="M460.813 214.794C460.813 207.081 467.065 200.829 474.778 200.829L765.983 200.829C773.688 200.829 779.952 207.081 779.952 214.794L779.952 242.539C779.952 250.252 773.698 256.504 765.983 256.504L474.778 256.504C467.065 256.504 460.813 250.252 460.813 242.539Z" fill="#4A7B7C" fill-rule="evenodd" fill-opacity="1" transform="matrix(1 0 0 1.00014 831.816 515.792)"/><text fill="#FFFFFF" fill-opacity="1" font-family="MS Gothic,MS Gothic_MSFontService,sans-serif" font-style="normal" font-variant="normal" font-weight="400" font-stretch="normal" font-size="42" text-anchor="start" direction="ltr" writing-mode="lr-tb" unicode-bidi="normal" text-decoration="none" transform="matrix(0.497101 0 0 0.497171 1326.84 752)">相互作用<tspan fill="#FFFFFF" fill-opacity="1" font-family="MS Gothic,MS Gothic_MSFontService,sans-serif" font-style="normal" font-variant="normal" font-weight="400" font-stretch="normal" font-size="42" text-anchor="start" direction="ltr" writing-mode="lr-tb" unicode-bidi="normal" text-decoration="none" x="168" y="0">の</tspan><tspan fill="#FFFFFF" fill-opacity="1" font-family="MS Gothic,MS Gothic_MSFontService,sans-serif" font-style="normal" font-variant="normal" font-weight="400" font-stretch="normal" font-size="42" text-anchor="start" direction="ltr" writing-mode="lr-tb" unicode-bidi="normal" text-decoration="none" x="210" y="0">アフォーダンス</tspan></text><path d="M460.813 284.886C460.813 277.173 467.065 270.92 474.778 270.92L765.983 270.92C773.688 270.92 779.952 277.173 779.952 284.886L779.952 312.63C779.952 320.343 773.698 326.595 765.983 326.595L474.778 326.595C467.065 326.595 460.813 320.343 460.813 312.63Z" fill="#4A7B7C" fill-rule="evenodd" fill-opacity="1" transform="matrix(1 0 0 1.00014 831.816 515.792)"/><text fill="#FFFFFF" fill-opacity="1" font-family="Noto Sans,Noto Sans_MSFontService,sans-serif" font-style="normal" font-variant="normal" font-weight="400" font-stretch="normal" font-size="42" text-anchor="start" direction="ltr" writing-mode="lr-tb" unicode-bidi="normal" text-decoration="none" transform="matrix(0.497101 0 0 0.497171 1387.65 823)">Data Schema</text><path d="M436.703 467.026C429.016 467.026 422.784 465.615 422.784 463.873L422.784 337.206C422.784 335.464 416.553 334.052 408.866 334.052 416.553 334.052 422.784 332.64 422.784 330.898L422.784 204.23C422.784 202.489 429.016 201.077 436.703 201.077" stroke="#000000" stroke-width="2.48551" stroke-linecap="butt" stroke-linejoin="round" stroke-miterlimit="10" stroke-opacity="1" fill="none" fill-rule="nonzero" transform="matrix(1 0 0 1.00014 831.816 515.792)"/><path d="M202.32 230.655 397.681 230.655 397.681 397.501 358.23 436.952 202.32 436.952Z" fill="#E57709" fill-rule="evenodd" fill-opacity="1" transform="matrix(1 0 0 1.00014 831.816 515.792)"/><path d="M358.23 436.952 366.12 405.386 397.686 397.496Z" fill="#B86007" fill-rule="evenodd" fill-opacity="1" transform="matrix(1 0 0 1.00014 831.816 515.792)"/><path d="M266.124 296.528 328.134 260.891 328.276 332.411Z" stroke="#FFFFFF" stroke-width="6.21376" stroke-linecap="butt" stroke-linejoin="round" stroke-miterlimit="10" stroke-opacity="1" fill="none" fill-rule="nonzero" transform="matrix(1 0 0 1.00014 831.816 515.792)"/><path d="M315.837 267.649C311.904 260.837 314.238 252.126 321.051 248.193 327.863 244.26 336.575 246.593 340.508 253.406 344.441 260.219 342.107 268.931 335.295 272.863 328.482 276.795 319.77 274.462 315.837 267.649ZM253.531 303.537C249.598 296.725 251.932 288.013 258.745 284.081 265.558 280.149 274.27 282.482 278.202 289.294 282.134 296.106 279.801 304.818 272.988 308.75 266.175 312.683 257.464 310.35 253.531 303.537ZM315.838 325.025C319.772 318.212 328.483 315.878 335.296 319.811 342.108 323.744 344.442 332.456 340.509 339.268 336.576 346.079 327.865 348.414 321.052 344.481 314.239 340.548 311.905 331.836 315.838 325.025Z" fill="#FFFFFF" fill-rule="evenodd" fill-opacity="1" transform="matrix(1 0 0 1.00014 831.816 515.792)"/><text fill="#FFFFFF" fill-opacity="1" font-family="Noto Sans,Noto Sans_MSFontService,sans-serif" font-style="normal" font-variant="normal" font-weight="400" font-stretch="normal" font-size="42" text-anchor="start" direction="ltr" writing-mode="lr-tb" unicode-bidi="normal" text-decoration="none" transform="matrix(0.497101 0 0 0.497171 1076.79 891)">WoT Thing<tspan fill="#FFFFFF" fill-opacity="1" font-family="Noto Sans,Noto Sans_MSFontService,sans-serif" font-style="normal" font-variant="normal" font-weight="400" font-stretch="normal" font-size="42" text-anchor="start" direction="ltr" writing-mode="lr-tb" unicode-bidi="normal" text-decoration="none" x="-7.55184" y="50.2845">Description</tspan></text><path d="M460.813 424.707C460.813 416.919 467.126 410.605 474.914 410.605L765.849 410.605C773.638 410.605 779.952 416.919 779.952 424.707L779.952 452.676C779.952 460.464 773.638 466.778 765.849 466.778L474.914 466.778C467.126 466.778 460.813 460.465 460.813 452.676Z" fill="#00B050" fill-rule="evenodd" fill-opacity="1" transform="matrix(1 0 0 1.00014 831.816 515.792)"/><text fill="#FFFFFF" fill-opacity="1" font-family="MS Gothic,MS Gothic_MSFontService,sans-serif" font-style="normal" font-variant="normal" font-weight="400" font-stretch="normal" font-size="42" text-anchor="start" direction="ltr" writing-mode="lr-tb" unicode-bidi="normal" text-decoration="none" transform="matrix(0.497101 0 0 0.497171 1325.77 963)">プロトコルバインディング</text><path d="M460.813 354.977C460.813 347.264 467.065 341.011 474.778 341.011L765.983 341.011C773.688 341.011 779.952 347.264 779.952 354.977L779.952 382.721C779.952 390.434 773.698 396.687 765.983 396.687L474.778 396.687C467.065 396.687 460.813 390.434 460.813 382.721Z" fill="#FFFF00" fill-rule="evenodd" fill-opacity="1" transform="matrix(1 0 0 1.00014 831.816 515.792)"/><text fill="#000000" fill-opacity="1" font-family="MS Gothic,MS Gothic_MSFontService,sans-serif" font-style="normal" font-variant="normal" font-weight="400" font-stretch="normal" font-size="42" text-anchor="start" direction="ltr" writing-mode="lr-tb" unicode-bidi="normal" text-decoration="none" transform="matrix(0.497101 0 0 0.497171 1346.78 893)">セキュリティ<tspan fill="#000000" fill-opacity="1" font-family="MS Gothic,MS Gothic_MSFontService,sans-serif" font-style="normal" font-variant="normal" font-weight="400" font-stretch="normal" font-size="42" text-anchor="start" direction="ltr" writing-mode="lr-tb" unicode-bidi="normal" text-decoration="none" x="252" y="0">構成情報</tspan></text></g></g></g></g><text fill="#000000" fill-opacity="1" font-family="Arial,Arial_MSFontService,sans-serif" font-style="normal" font-variant="normal" font-weight="400" font-stretch="normal" font-size="83" text-anchor="start" direction="ltr" writing-mode="lr-tb" unicode-bidi="normal" text-decoration="none" transform="matrix(1 0 0 1 2569.65 1184)">Scripting API</text><path d="M3376 1435 3343.5 1435 3343.5 1497 3278.5 1497 3278.5 1435 3246 1435 3311 1373Z" fill="#BEBFBF" fill-rule="evenodd" fill-opacity="1"/><path d="M925.5 1457.27C925.5 1454.08 928.083 1451.5 931.269 1451.5L3519.73 1451.5C3522.92 1451.5 3525.5 1454.08 3525.5 1457.27L3525.5 1628.73C3525.5 1631.92 3522.92 1634.5 3519.73 1634.5L931.269 1634.5C928.083 1634.5 925.5 1631.92 925.5 1628.73Z" stroke="#000000" stroke-width="4.58333" stroke-linecap="butt" stroke-linejoin="miter" stroke-miterlimit="8" stroke-opacity="1" fill="#FFFFFF" fill-rule="evenodd" fill-opacity="1"/><text fill="#000000" fill-opacity="1" font-family="Arial,Arial_MSFontService,sans-serif" font-style="normal" font-variant="normal" font-weight="400" font-stretch="normal" font-size="83" text-anchor="start" direction="ltr" writing-mode="lr-tb" unicode-bidi="normal" text-decoration="none" transform="matrix(6.12323e-17 1 -1 6.12323e-17 3328.39 639)">Security and <tspan fill="#000000" fill-opacity="1" font-family="Arial,Arial_MSFontService,sans-serif" font-style="normal" font-variant="normal" font-weight="400" font-stretch="normal" font-size="83" text-anchor="start" direction="ltr" writing-mode="lr-tb" unicode-bidi="normal" text-decoration="none" x="-6.062e-15" y="99">Privacy Guidelines</tspan></text><text fill="#000000" fill-opacity="1" font-family="Arial,Arial_MSFontService,sans-serif" font-style="normal" font-variant="normal" font-weight="700" font-stretch="normal" font-size="83" text-anchor="start" direction="ltr" writing-mode="lr-tb" unicode-bidi="normal" text-decoration="none" transform="matrix(1 0 0 1 2569.65 906)">Discovery</text><text fill="#AFABAB" fill-opacity="1" font-family="Arial,Arial_MSFontService,sans-serif" font-style="normal" font-variant="normal" font-weight="700" font-stretch="normal" font-size="83" text-anchor="start" direction="ltr" writing-mode="lr-tb" unicode-bidi="normal" text-decoration="none" transform="matrix(6.12323e-17 1 -1 6.12323e-17 2179.33 877)">Profile</text><text fill="#000000" fill-opacity="1" font-family="Arial,Arial_MSFontService,sans-serif" font-style="normal" font-variant="normal" font-weight="400" font-stretch="normal" font-size="83" text-anchor="start" direction="ltr" writing-mode="lr-tb" unicode-bidi="normal" text-decoration="none" transform="matrix(1 0 0 1 1695.89 1571)">Use Cases and Requirements</text><g clip-path="url(#clip5)"><g clip-path="url(#clip6)"><g clip-path="url(#clip7)"><g clip-path="url(#clip8)"><path d="M0 73.7735 1621.4 73.7735 1621.4 838.261 0 838.261Z" fill="#FFFFFF" fill-rule="nonzero" fill-opacity="1" transform="matrix(1.00155 0 0 1 799.289 489.29)"/><path d="M147.946 227.706 183.12 207.492 183.201 248.059Z" stroke="#FFFFFF" stroke-width="3.80055" stroke-linecap="butt" stroke-linejoin="round" stroke-miterlimit="10" stroke-opacity="1" fill="none" fill-rule="nonzero" transform="matrix(1.00155 0 0 1 799.289 489.29)"/><path d="M176.145 211.325C173.916 207.46 175.239 202.52 179.102 200.288 182.966 198.058 187.907 199.382 190.139 203.245 192.368 207.11 191.044 212.05 187.181 214.282 183.317 216.511 178.377 215.187 176.145 211.325Z" fill="#FFFFFF" fill-rule="evenodd" fill-opacity="1" transform="matrix(1.00155 0 0 1 799.289 489.29)"/><path d="M140.804 231.681C138.574 227.817 139.898 222.876 143.761 220.644 147.626 218.416 152.565 219.74 154.797 223.602 157.026 227.466 155.703 232.405 151.84 234.638 147.976 236.867 143.036 235.544 140.804 231.681ZM176.145 243.87C178.377 240.007 183.317 238.683 187.182 240.913 191.045 243.144 192.369 248.085 190.139 251.949 187.907 255.812 182.967 257.135 179.103 254.906 175.24 252.674 173.917 247.735 176.145 243.87Z" fill="#FFFFFF" fill-rule="evenodd" fill-opacity="1" transform="matrix(1.00155 0 0 1 799.289 489.29)"/><path d="M624.237 150.157C624.237 131.254 639.561 115.93 658.465 115.93L1270.18 115.93C1289.09 115.93 1304.41 131.254 1304.41 150.157L1304.41 761.877C1304.41 780.78 1289.09 796.105 1270.18 796.105L658.465 796.105C639.562 796.105 624.237 780.781 624.237 761.877Z" fill="#7F7F7F" fill-rule="evenodd" fill-opacity="1" transform="matrix(1.00155 0 0 1 799.289 489.29)"/><text fill="#FFFFFF" fill-opacity="1" font-family="Noto Sans,Noto Sans_MSFontService,sans-serif" font-style="normal" font-variant="normal" font-weight="700" font-stretch="normal" font-size="42" text-anchor="start" direction="ltr" writing-mode="lr-tb" unicode-bidi="normal" text-decoration="none" transform="matrix(0.811954 0 0 0.810698 1695.02 653)">Servient</text><path d="M643.694 381.663C643.694 371.462 651.963 363.193 662.165 363.193L1266.49 363.193C1276.69 363.193 1284.96 371.462 1284.96 381.663L1284.96 660.894C1284.96 671.095 1276.69 679.365 1266.49 679.365L662.165 679.365C651.963 679.365 643.694 671.095 643.694 660.894Z" fill="#FFFFFF" fill-rule="evenodd" fill-opacity="1" transform="matrix(1.00155 0 0 1 799.289 489.29)"/><text fill="#000000" fill-opacity="1" font-family="MS Gothic,MS Gothic_MSFontService,sans-serif" font-style="normal" font-variant="normal" font-weight="400" font-stretch="normal" font-size="38" text-anchor="start" direction="ltr" writing-mode="lr-tb" unicode-bidi="normal" text-decoration="none" transform="matrix(0.811954 0 0 0.810698 1528.59 893)">スクリプティング<tspan fill="#000000" fill-opacity="1" font-family="Noto Sans,Noto Sans_MSFontService,sans-serif" font-style="normal" font-variant="normal" font-weight="400" font-stretch="normal" font-size="38" text-anchor="start" direction="ltr" writing-mode="lr-tb" unicode-bidi="normal" text-decoration="none" x="304" y="0">WoT</tspan><tspan fill="#000000" fill-opacity="1" font-family="MS Gothic,MS Gothic_MSFontService,sans-serif" font-style="normal" font-variant="normal" font-weight="400" font-stretch="normal" font-size="38" text-anchor="start" direction="ltr" writing-mode="lr-tb" unicode-bidi="normal" text-decoration="none" x="383" y="0">ランタイム</tspan></text><path d="M663.151 533.277C663.151 526.651 668.522 521.279 675.149 521.279L847.341 521.279C853.965 521.279 859.339 526.65 859.339 533.277L859.339 557.111C859.339 563.737 853.965 569.11 847.341 569.11L675.149 569.11C668.523 569.11 663.151 563.738 663.151 557.111Z" fill="#558ED5" fill-rule="evenodd" fill-opacity="1" transform="matrix(1.00155 0 0 1 799.289 489.29)"/><text fill="#FFFFFF" fill-opacity="1" font-family="MS Gothic,MS Gothic_MSFontService,sans-serif" font-style="normal" font-variant="normal" font-weight="400" font-stretch="normal" font-size="29" text-anchor="start" direction="ltr" writing-mode="lr-tb" unicode-bidi="normal" text-decoration="none" transform="matrix(0.811954 0 0 0.810698 1469.47 1044)">公開<tspan fill="#FFFFFF" fill-opacity="1" font-family="MS Gothic,MS Gothic_MSFontService,sans-serif" font-style="normal" font-variant="normal" font-weight="400" font-stretch="normal" font-size="29" text-anchor="start" direction="ltr" writing-mode="lr-tb" unicode-bidi="normal" text-decoration="none" x="57.9999" y="0">された</tspan><tspan fill="#FFFFFF" fill-opacity="1" font-family="Noto Sans,Noto Sans_MSFontService,sans-serif" font-style="normal" font-variant="normal" font-weight="400" font-stretch="normal" font-size="29" text-anchor="start" direction="ltr" writing-mode="lr-tb" unicode-bidi="normal" text-decoration="none" x="145" y="0">Thing</tspan></text><path d="M865.825 533.277C865.825 526.65 871.2 521.279 877.823 521.279L1050.83 521.279C1057.45 521.279 1062.82 526.65 1062.82 533.277L1062.82 557.111C1062.82 563.738 1057.45 569.11 1050.83 569.11L877.823 569.11C871.2 569.11 865.825 563.738 865.825 557.111Z" fill="#558ED5" fill-rule="evenodd" fill-opacity="1" transform="matrix(1.00155 0 0 1 799.289 489.29)"/><text fill="#FFFFFF" fill-opacity="1" font-family="MS Gothic,MS Gothic_MSFontService,sans-serif" font-style="normal" font-variant="normal" font-weight="400" font-stretch="normal" font-size="29" text-anchor="start" direction="ltr" writing-mode="lr-tb" unicode-bidi="normal" text-decoration="none" transform="matrix(0.811954 0 0 0.810698 1674.56 1044)">利用<tspan fill="#FFFFFF" fill-opacity="1" font-family="MS Gothic,MS Gothic_MSFontService,sans-serif" font-style="normal" font-variant="normal" font-weight="400" font-stretch="normal" font-size="29" text-anchor="start" direction="ltr" writing-mode="lr-tb" unicode-bidi="normal" text-decoration="none" x="57.9999" y="0">される</tspan><tspan fill="#FFFFFF" fill-opacity="1" font-family="Noto Sans,Noto Sans_MSFontService,sans-serif" font-style="normal" font-variant="normal" font-weight="400" font-stretch="normal" font-size="29" text-anchor="start" direction="ltr" writing-mode="lr-tb" unicode-bidi="normal" text-decoration="none" x="145" y="0">Thing</tspan></text><path d="M1069.31 533.277C1069.31 526.651 1074.69 521.279 1081.31 521.279L1253.5 521.279C1260.12 521.279 1265.5 526.65 1265.5 533.277L1265.5 557.111C1265.5 563.737 1260.12 569.11 1253.5 569.11L1081.31 569.11C1074.69 569.11 1069.31 563.738 1069.31 557.111Z" fill="#558ED5" fill-rule="evenodd" fill-opacity="1" transform="matrix(1.00155 0 0 1 799.289 489.29)"/><text fill="#FFFFFF" fill-opacity="1" font-family="MS Gothic,MS Gothic_MSFontService,sans-serif" font-style="normal" font-variant="normal" font-weight="400" font-stretch="normal" font-size="29" text-anchor="start" direction="ltr" writing-mode="lr-tb" unicode-bidi="normal" text-decoration="none" transform="matrix(0.811954 0 0 0.810698 1879.77 1044)">利用<tspan fill="#FFFFFF" fill-opacity="1" font-family="MS Gothic,MS Gothic_MSFontService,sans-serif" font-style="normal" font-variant="normal" font-weight="400" font-stretch="normal" font-size="29" text-anchor="start" direction="ltr" writing-mode="lr-tb" unicode-bidi="normal" text-decoration="none" x="58.0001" y="0">される</tspan><tspan fill="#FFFFFF" fill-opacity="1" font-family="Noto Sans,Noto Sans_MSFontService,sans-serif" font-style="normal" font-variant="normal" font-weight="400" font-stretch="normal" font-size="29" text-anchor="start" direction="ltr" writing-mode="lr-tb" unicode-bidi="normal" text-decoration="none" x="145" y="0">Thing</tspan></text><path d="M651.548 344.141C657.004 344.139 661.427 339.716 661.428 334.26L651.548 334.26C654.276 334.26 656.488 332.049 656.488 329.321 656.488 326.593 654.276 324.38 651.548 324.38L661.428 324.38 661.428 195.936C661.429 190.479 665.852 186.056 671.309 186.055L1273.04 186.055C1278.49 186.055 1282.93 190.479 1282.93 195.936 1282.93 201.393 1278.5 205.816 1273.04 205.816L1263.16 205.816 1263.16 334.26C1263.16 339.716 1258.74 344.141 1253.27 344.141ZM681.189 195.936C681.187 201.392 676.764 205.815 671.308 205.816 668.58 205.816 666.368 203.604 666.368 200.876 666.368 198.148 668.58 195.937 671.308 195.937Z" fill="#FFFFFF" fill-rule="evenodd" fill-opacity="1" transform="matrix(1.00155 0 0 1 799.289 489.29)"/><path d="M681.189 195.936C681.187 201.392 676.764 205.815 671.308 205.816 668.58 205.816 666.368 203.604 666.368 200.876 666.368 198.148 668.58 195.937 671.308 195.937ZM661.428 334.26C661.427 339.716 657.004 344.139 651.548 344.141 646.091 344.14 641.668 339.717 641.667 334.26 641.669 328.804 646.092 324.381 651.548 324.38 654.276 324.38 656.488 326.592 656.488 329.32 656.488 332.048 654.276 334.26 651.548 334.26Z" fill="#CDCDCD" fill-rule="evenodd" fill-opacity="1" transform="matrix(1.00155 0 0 1 799.289 489.29)"/><path d="M661.428 324.38 661.428 195.936C661.429 190.479 665.852 186.056 671.309 186.055L1273.04 186.055C1278.49 186.055 1282.93 190.479 1282.93 195.936 1282.93 201.393 1278.5 205.816 1273.04 205.816L1263.16 205.816 1263.16 334.26C1263.16 339.716 1258.74 344.141 1253.27 344.141L651.548 344.141C646.091 344.14 641.668 339.717 641.667 334.26 641.669 328.804 646.092 324.381 651.548 324.38ZM671.308 186.055C676.765 186.056 681.188 190.479 681.189 195.936 681.187 201.392 676.764 205.815 671.308 205.816 668.58 205.816 666.368 203.604 666.368 200.876 666.368 198.148 668.58 195.937 671.308 195.937L681.189 195.936M1263.17 205.816 671.308 205.816M651.548 324.38C654.276 324.38 656.488 326.594 656.488 329.321 656.488 332.048 654.276 334.26 651.548 334.26L661.428 334.26M651.548 344.141C657.004 344.139 661.427 339.716 661.428 334.26L661.428 324.38" stroke="#000000" stroke-width="0.810698" stroke-linecap="butt" stroke-linejoin="round" stroke-miterlimit="10" stroke-opacity="1" fill="none" fill-rule="nonzero" transform="matrix(1.00155 0 0 1 799.289 489.29)"/><path d="M680.986 267.392C680.986 256.724 689.636 248.073 700.305 248.073L1225.91 248.073C1236.58 248.073 1245.23 256.724 1245.23 267.392L1245.23 305.771C1245.23 316.44 1236.58 325.09 1225.91 325.09L700.305 325.09C689.636 325.09 680.986 316.44 680.986 305.771Z" fill="#005A9C" fill-rule="evenodd" fill-opacity="1" transform="matrix(1.00155 0 0 1 799.289 489.29)"/><text fill="#FFFFFF" fill-opacity="1" font-family="MS Gothic,MS Gothic_MSFontService,sans-serif" font-style="normal" font-variant="normal" font-weight="400" font-stretch="normal" font-size="42" text-anchor="start" direction="ltr" writing-mode="lr-tb" unicode-bidi="normal" text-decoration="none" transform="matrix(0.811954 0 0 0.810698 1676.48 788)">動作<tspan fill="#FFFFFF" fill-opacity="1" font-family="MS Gothic,MS Gothic_MSFontService,sans-serif" font-style="normal" font-variant="normal" font-weight="400" font-stretch="normal" font-size="42" text-anchor="start" direction="ltr" writing-mode="lr-tb" unicode-bidi="normal" text-decoration="none" x="84" y="0">の</tspan><tspan fill="#FFFFFF" fill-opacity="1" font-family="MS Gothic,MS Gothic_MSFontService,sans-serif" font-style="normal" font-variant="normal" font-weight="400" font-stretch="normal" font-size="42" text-anchor="start" direction="ltr" writing-mode="lr-tb" unicode-bidi="normal" text-decoration="none" x="126" y="0">実装</tspan><tspan fill="#000000" fill-opacity="1" font-family="MS Gothic,MS Gothic_MSFontService,sans-serif" font-style="normal" font-variant="normal" font-weight="400" font-stretch="normal" font-size="29" text-anchor="start" direction="ltr" writing-mode="lr-tb" unicode-bidi="normal" text-decoration="none" x="-95.23" y="-80.1779">アプリケーション</tspan><tspan fill="#000000" fill-opacity="1" font-family="MS Gothic,MS Gothic_MSFontService,sans-serif" font-style="normal" font-variant="normal" font-weight="400" font-stretch="normal" font-size="29" text-anchor="start" direction="ltr" writing-mode="lr-tb" unicode-bidi="normal" text-decoration="none" x="136.77" y="-80.1779">の</tspan><tspan fill="#000000" fill-opacity="1" font-family="MS Gothic,MS Gothic_MSFontService,sans-serif" font-style="normal" font-variant="normal" font-weight="400" font-stretch="normal" font-size="29" text-anchor="start" direction="ltr" writing-mode="lr-tb" unicode-bidi="normal" text-decoration="none" x="165.77" y="-80.1779">スクリプト</tspan></text><path d="M641.262 718.764C641.262 708.199 649.828 699.632 660.394 699.632L1093.96 699.632C1104.52 699.632 1113.09 708.198 1113.09 718.764L1113.09 756.705C1113.09 767.271 1104.52 775.838 1093.96 775.838L660.394 775.838C649.828 775.838 641.262 767.272 641.262 756.705Z" fill="#00B050" fill-rule="evenodd" fill-opacity="1" transform="matrix(1.00155 0 0 1 799.289 489.29)"/><text fill="#FFFFFF" fill-opacity="1" font-family="MS Gothic,MS Gothic_MSFontService,sans-serif" font-style="normal" font-variant="normal" font-weight="400" font-stretch="normal" font-size="38" text-anchor="start" direction="ltr" writing-mode="lr-tb" unicode-bidi="normal" text-decoration="none" transform="matrix(0.811954 0 0 0.810698 1488.38 1239)">プロトコルスタック<tspan fill="#FFFFFF" fill-opacity="1" font-family="MS Gothic,MS Gothic_MSFontService,sans-serif" font-style="normal" font-variant="normal" font-weight="400" font-stretch="normal" font-size="38" text-anchor="start" direction="ltr" writing-mode="lr-tb" unicode-bidi="normal" text-decoration="none" x="342" y="0">の</tspan><tspan fill="#FFFFFF" fill-opacity="1" font-family="MS Gothic,MS Gothic_MSFontService,sans-serif" font-style="normal" font-variant="normal" font-weight="400" font-stretch="normal" font-size="38" text-anchor="start" direction="ltr" writing-mode="lr-tb" unicode-bidi="normal" text-decoration="none" x="380" y="0">実装</tspan></text><path d="M663.151 446.13C663.151 436.144 671.246 428.048 681.232 428.048L1248.23 428.048C1258.22 428.052 1266.31 436.146 1266.31 446.13L1266.31 486.172C1266.31 496.156 1258.22 504.249 1248.23 504.254L681.232 504.254C671.246 504.254 663.151 496.158 663.151 486.172Z" fill="#558ED5" fill-rule="evenodd" fill-opacity="1" transform="matrix(1.00155 0 0 1 799.289 489.29)"/><text fill="#FFFFFF" fill-opacity="1" font-family="Noto Sans,Noto Sans_MSFontService,sans-serif" font-style="normal" font-variant="normal" font-weight="400" font-stretch="normal" font-size="42" text-anchor="start" direction="ltr" writing-mode="lr-tb" unicode-bidi="normal" text-decoration="none" transform="matrix(0.811954 0 0 0.810698 1571.09 968)">WoT<tspan fill="#FFFFFF" fill-opacity="1" font-family="MS Gothic,MS Gothic_MSFontService,sans-serif" font-style="normal" font-variant="normal" font-weight="400" font-stretch="normal" font-size="42" text-anchor="start" direction="ltr" writing-mode="lr-tb" unicode-bidi="normal" text-decoration="none" x="87" y="0">スクリプティング</tspan><tspan fill="#FFFFFF" fill-opacity="1" font-family="Noto Sans,Noto Sans_MSFontService,sans-serif" font-style="normal" font-variant="normal" font-weight="400" font-stretch="normal" font-size="42" text-anchor="start" direction="ltr" writing-mode="lr-tb" unicode-bidi="normal" text-decoration="none" x="423" y="0">API</tspan></text><path d="M663.556 604.035C663.556 593.478 672.115 584.918 682.672 584.918L1247.6 584.918C1258.15 584.918 1266.71 593.477 1266.71 604.035L1266.71 642.009C1266.71 652.566 1258.15 661.126 1247.6 661.126L682.672 661.126C672.115 661.126 663.556 652.567 663.556 642.009Z" stroke="#000000" stroke-width="0.810698" stroke-linecap="butt" stroke-linejoin="round" stroke-miterlimit="10" stroke-opacity="1" fill="#FFFF00" fill-rule="evenodd" fill-opacity="1" transform="matrix(1.00155 0 0 1 799.289 489.29)"/><text fill="#000000" fill-opacity="1" font-family="Noto Sans,Noto Sans_MSFontService,sans-serif" font-style="normal" font-variant="normal" font-weight="400" font-stretch="normal" font-size="42" text-anchor="start" direction="ltr" writing-mode="lr-tb" unicode-bidi="normal" text-decoration="none" transform="matrix(0.811954 0 0 0.810698 1600.08 1125)">Private Security <tspan fill="#000000" fill-opacity="1" font-family="Noto Sans,Noto Sans_MSFontService,sans-serif" font-style="normal" font-variant="normal" font-weight="400" font-stretch="normal" font-size="42" text-anchor="start" direction="ltr" writing-mode="lr-tb" unicode-bidi="normal" text-decoration="none" x="314.583" y="0">Data</tspan></text><path d="M610.05 362.382 610.05 382.447 643.694 382.447 643.694 422.576 610.05 422.576 610.05 442.641 576.406 402.511Z" fill="#BFBFBF" fill-rule="evenodd" fill-opacity="1" transform="matrix(1.00155 0 0 1 799.289 489.29)"/><text fill="#000000" fill-opacity="1" font-family="MS Gothic,MS Gothic_MSFontService,sans-serif" font-style="normal" font-variant="normal" font-weight="400" font-stretch="normal" font-size="38" text-anchor="start" direction="ltr" writing-mode="lr-tb" unicode-bidi="normal" text-decoration="none" transform="matrix(0.811954 0 0 0.810698 1100.32 656)">公開</text><path d="M1320.22 389.135 1320.22 409.2 1353.05 409.2 1353.05 449.329 1320.22 449.329 1320.22 469.394 1287.39 429.264ZM1320.22 574.785 1320.22 595.052 1353.05 595.052 1353.05 635.587 1320.22 635.587 1320.22 655.854 1287.39 615.32Z" fill="#BFBFBF" fill-rule="evenodd" fill-opacity="1" transform="matrix(1.00155 0 0 1 799.289 489.29)"/><text fill="#000000" fill-opacity="1" font-family="MS Gothic,MS Gothic_MSFontService,sans-serif" font-style="normal" font-variant="normal" font-weight="400" font-stretch="normal" font-size="38" text-anchor="start" direction="ltr" writing-mode="lr-tb" unicode-bidi="normal" text-decoration="none" transform="matrix(0.811954 0 0 0.810698 2202.98 819)">利用</text><path d="M1353.05 346.168 1520.06 346.168 1520.06 478.8 1486.5 512.361 1353.05 512.361Z" fill="#984807" fill-rule="evenodd" fill-opacity="1" transform="matrix(1.00155 0 0 1 799.289 489.29)"/><path d="M1486.5 512.361 1493.21 485.512 1520.06 478.8Z" fill="#7A3A06" fill-rule="evenodd" fill-opacity="1" transform="matrix(1.00155 0 0 1 799.289 489.29)"/><text fill="#FFFFFF" fill-opacity="1" font-family="Noto Sans,Noto Sans_MSFontService,sans-serif" font-style="normal" font-variant="normal" font-weight="400" font-stretch="normal" font-size="29" text-anchor="start" direction="ltr" writing-mode="lr-tb" unicode-bidi="normal" text-decoration="none" transform="matrix(0.811954 0 0 0.810698 2178.62 945)">WoT Thing<tspan fill="#FFFFFF" fill-opacity="1" font-family="Noto Sans,Noto Sans_MSFontService,sans-serif" font-style="normal" font-variant="normal" font-weight="400" font-stretch="normal" font-size="29" text-anchor="start" direction="ltr" writing-mode="lr-tb" unicode-bidi="normal" text-decoration="none" x="-5.46912" y="34.5382">Description</tspan></text><path d="M1416.82 394.934 1452.01 374.719 1452.09 415.288Z" stroke="#FFFFFF" stroke-width="3.80055" stroke-linecap="butt" stroke-linejoin="round" stroke-miterlimit="10" stroke-opacity="1" fill="none" fill-rule="nonzero" transform="matrix(1.00155 0 0 1 799.289 489.29)"/><path d="M1445.02 378.553C1442.79 374.689 1444.13 369.749 1447.98 367.517 1451.85 365.286 1456.78 366.609 1459.02 370.473 1461.25 374.339 1459.93 379.278 1456.06 381.51 1452.19 383.741 1447.26 382.418 1445.02 378.553ZM1409.67 398.901C1407.44 395.036 1408.77 390.096 1412.63 387.865 1416.5 385.633 1421.44 386.957 1423.66 390.822 1425.89 394.687 1424.57 399.627 1420.7 401.859 1416.84 404.088 1411.91 402.768 1409.68 398.91 1409.67 398.908 1409.67 398.905 1409.67 398.901ZM1445.02 411.089C1447.25 407.224 1452.19 405.9 1456.05 408.131 1459.91 410.363 1461.23 415.303 1459 419.168 1456.77 423.032 1451.83 424.356 1447.96 422.125 1444.1 419.894 1442.77 414.952 1445.01 411.089Z" fill="#FFFFFF" fill-rule="evenodd" fill-opacity="1" transform="matrix(1.00155 0 0 1 799.289 489.29)"/><path d="M1353.05 531.818 1520.06 531.818 1520.06 664.449 1486.5 698.011 1353.05 698.011Z" fill="#984807" fill-rule="evenodd" fill-opacity="1" transform="matrix(1.00155 0 0 1 799.289 489.29)"/><path d="M1486.5 698.011 1493.21 671.162 1520.06 664.449Z" fill="#7A3A06" fill-rule="evenodd" fill-opacity="1" transform="matrix(1.00155 0 0 1 799.289 489.29)"/><text fill="#FFFFFF" fill-opacity="1" font-family="Noto Sans,Noto Sans_MSFontService,sans-serif" font-style="normal" font-variant="normal" font-weight="400" font-stretch="normal" font-size="29" text-anchor="start" direction="ltr" writing-mode="lr-tb" unicode-bidi="normal" text-decoration="none" transform="matrix(0.811954 0 0 0.810698 2178.62 1131)">WoT Thing<tspan fill="#FFFFFF" fill-opacity="1" font-family="Noto Sans,Noto Sans_MSFontService,sans-serif" font-style="normal" font-variant="normal" font-weight="400" font-stretch="normal" font-size="29" text-anchor="start" direction="ltr" writing-mode="lr-tb" unicode-bidi="normal" text-decoration="none" x="-5.46912" y="34.5382">Description</tspan></text><path d="M1416.82 580.624 1452.01 560.409 1452.09 600.978Z" stroke="#FFFFFF" stroke-width="3.80055" stroke-linecap="butt" stroke-linejoin="round" stroke-miterlimit="10" stroke-opacity="1" fill="none" fill-rule="nonzero" transform="matrix(1.00155 0 0 1 799.289 489.29)"/><path d="M1445.02 564.244C1442.79 560.379 1444.13 555.438 1447.98 553.207 1451.85 550.976 1456.78 552.299 1459.02 556.164 1461.25 560.03 1459.93 564.969 1456.06 567.201 1452.19 569.432 1447.26 568.108 1445.02 564.244ZM1409.67 584.601C1407.44 580.737 1408.77 575.796 1412.63 573.565 1416.5 571.333 1421.44 572.657 1423.66 576.521 1425.89 580.387 1424.57 585.326 1420.7 587.558 1416.84 589.787 1411.91 588.467 1409.68 584.61 1409.67 584.607 1409.67 584.604 1409.67 584.601ZM1445.02 596.788C1447.25 592.924 1452.19 591.599 1456.05 593.83 1459.91 596.062 1461.23 601.002 1459 604.867 1456.77 608.732 1451.83 610.056 1447.96 607.825 1444.1 605.594 1442.77 600.652 1445.01 596.788Z" fill="#FFFFFF" fill-rule="evenodd" fill-opacity="1" transform="matrix(1.00155 0 0 1 799.289 489.29)"/><path d="M1129.3 717.346C1129.3 706.667 1137.96 698.011 1148.64 698.011L1264 698.011C1274.68 698.011 1283.33 706.667 1283.33 717.346L1283.33 755.692C1283.33 766.37 1274.68 775.027 1264 775.027L1148.64 775.027C1137.96 775.027 1129.3 766.37 1129.3 755.692Z" fill="#000000" fill-rule="evenodd" fill-opacity="1" transform="matrix(1.00155 0 0 1 799.289 489.29)"/><text fill="#FFFFFF" fill-opacity="1" font-family="MS Gothic,MS Gothic_MSFontService,sans-serif" font-style="normal" font-variant="normal" font-weight="400" font-stretch="normal" font-size="42" text-anchor="start" direction="ltr" writing-mode="lr-tb" unicode-bidi="normal" text-decoration="none" transform="matrix(0.811954 0 0 0.810698 1939.42 1239)">システム</text><path d="M94.8516 185.65 575.595 185.65 575.595 490.38 498.487 567.488 94.8516 567.488Z" fill="#E57709" fill-rule="evenodd" fill-opacity="1" transform="matrix(1.00155 0 0 1 799.289 489.29)"/><path d="M498.487 567.488 513.909 505.802 575.595 490.38Z" fill="#B86007" fill-rule="evenodd" fill-opacity="1" transform="matrix(1.00155 0 0 1 799.289 489.29)"/><text fill="#FFFFFF" fill-opacity="1" font-family="Noto Sans,Noto Sans_MSFontService,sans-serif" font-style="normal" font-variant="normal" font-weight="400" font-stretch="normal" font-size="42" text-anchor="start" direction="ltr" writing-mode="lr-tb" unicode-bidi="normal" text-decoration="none" transform="matrix(0.811954 0 0 0.810698 983.59 728)">WoT<tspan fill="#FFFFFF" fill-opacity="1" font-family="Noto Sans,Noto Sans_MSFontService,sans-serif" font-style="normal" font-variant="normal" font-weight="400" font-stretch="normal" font-size="42" text-anchor="start" direction="ltr" writing-mode="lr-tb" unicode-bidi="normal" text-decoration="none" x="98.177" y="0">Thing Description</tspan></text><path d="M124.75 230.836 159.924 210.621 160.005 251.19Z" stroke="#FFFFFF" stroke-width="3.80055" stroke-linecap="butt" stroke-linejoin="round" stroke-miterlimit="10" stroke-opacity="1" fill="none" fill-rule="nonzero" transform="matrix(1.00155 0 0 1 799.289 489.29)"/><path d="M152.948 214.454C150.719 210.589 152.043 205.65 155.905 203.418 159.77 201.188 164.709 202.511 166.942 206.374 169.172 210.239 167.848 215.179 163.985 217.411 160.12 219.641 155.18 218.317 152.948 214.454ZM117.608 234.802C115.378 230.938 116.702 225.998 120.565 223.766 124.429 221.536 129.37 222.86 131.601 226.723 133.831 230.588 132.507 235.528 128.644 237.76 124.779 239.988 119.84 238.665 117.608 234.802ZM152.949 246.991C155.18 243.129 160.12 241.805 163.985 244.034 167.848 246.266 169.172 251.206 166.942 255.071 164.71 258.933 159.771 260.257 155.906 258.028 152.043 255.796 150.719 250.856 152.949 246.991Z" fill="#FFFFFF" fill-rule="evenodd" fill-opacity="1" transform="matrix(1.00155 0 0 1 799.289 489.29)"/><path d="M112.687 446.578C112.689 440.374 117.717 435.346 123.92 435.345L545.716 435.345C551.92 435.346 556.948 440.374 556.949 446.578L556.949 473.564C556.948 479.768 551.92 484.796 545.716 484.797L123.92 484.797C117.717 484.796 112.689 479.768 112.687 473.564Z" fill="#FFFF00" fill-rule="evenodd" fill-opacity="1" transform="matrix(1.00155 0 0 1 799.289 489.29)"/><text fill="#000000" fill-opacity="1" font-family="Noto Sans,Noto Sans_MSFontService,sans-serif" font-style="normal" font-variant="normal" font-weight="400" font-stretch="normal" font-size="38" text-anchor="start" direction="ltr" writing-mode="lr-tb" unicode-bidi="normal" text-decoration="none" transform="matrix(0.811954 0 0 0.810698 958.22 962)">Public Security Metadata</text><path d="M112.687 336.277C112.687 329.651 118.059 324.279 124.685 324.279L544.14 324.279C550.767 324.279 556.139 329.651 556.139 336.277L556.139 360.112C556.139 366.739 550.767 372.11 544.14 372.11L124.685 372.11C118.059 372.11 112.687 366.739 112.687 360.112Z" fill="#4A7B7C" fill-rule="evenodd" fill-opacity="1" transform="matrix(1.00155 0 0 1 799.289 489.29)"/><text fill="#FFFFFF" fill-opacity="1" font-family="MS Gothic,MS Gothic_MSFontService,sans-serif" font-style="normal" font-variant="normal" font-weight="400" font-stretch="normal" font-size="38" text-anchor="start" direction="ltr" writing-mode="lr-tb" unicode-bidi="normal" text-decoration="none" transform="matrix(0.811954 0 0 0.810698 949.964 850)">相互作用<tspan fill="#FFFFFF" fill-opacity="1" font-family="MS Gothic,MS Gothic_MSFontService,sans-serif" font-style="normal" font-variant="normal" font-weight="400" font-stretch="normal" font-size="38" text-anchor="start" direction="ltr" writing-mode="lr-tb" unicode-bidi="normal" text-decoration="none" x="152" y="0">の</tspan><tspan fill="#FFFFFF" fill-opacity="1" font-family="MS Gothic,MS Gothic_MSFontService,sans-serif" font-style="normal" font-variant="normal" font-weight="400" font-stretch="normal" font-size="38" text-anchor="start" direction="ltr" writing-mode="lr-tb" unicode-bidi="normal" text-decoration="none" x="190" y="0">アフォーダンス</tspan></text><path d="M113.498 281.758C113.498 275.244 118.779 269.962 125.293 269.962L544.343 269.962C550.857 269.962 556.139 275.243 556.139 281.758L556.139 305.189C556.139 311.703 550.858 316.984 544.343 316.984L125.293 316.984C118.779 316.984 113.498 311.704 113.498 305.189Z" fill="#7F7F7F" fill-rule="evenodd" fill-opacity="1" transform="matrix(1.00155 0 0 1 799.289 489.29)"/><text fill="#FFFFFF" fill-opacity="1" font-family="MS Gothic,MS Gothic_MSFontService,sans-serif" font-style="normal" font-variant="normal" font-weight="400" font-stretch="normal" font-size="38" text-anchor="start" direction="ltr" writing-mode="lr-tb" unicode-bidi="normal" text-decoration="none" transform="matrix(0.811954 0 0 0.810698 997.807 795)">一般的<tspan fill="#FFFFFF" fill-opacity="1" font-family="MS Gothic,MS Gothic_MSFontService,sans-serif" font-style="normal" font-variant="normal" font-weight="400" font-stretch="normal" font-size="38" text-anchor="start" direction="ltr" writing-mode="lr-tb" unicode-bidi="normal" text-decoration="none" x="114" y="0">な</tspan>メタデータ</text><path d="M111.876 388.89C111.877 383.205 116.486 378.597 122.171 378.596L545.844 378.596C551.529 378.597 556.138 383.205 556.139 388.89L556.139 416.943C556.138 422.628 551.529 427.237 545.844 427.238L122.171 427.238C116.486 427.237 111.877 422.628 111.876 416.943Z" fill="#4A7B7C" fill-rule="evenodd" fill-opacity="1" transform="matrix(1.00155 0 0 1 799.289 489.29)"/><text fill="#FFFFFF" fill-opacity="1" font-family="Noto Sans,Noto Sans_MSFontService,sans-serif" font-style="normal" font-variant="normal" font-weight="400" font-stretch="normal" font-size="38" text-anchor="start" direction="ltr" writing-mode="lr-tb" unicode-bidi="normal" text-decoration="none" transform="matrix(0.811954 0 0 0.810698 1032.5 904)">Data Schema</text><path d="M113.498 503.198C113.498 497.514 118.107 492.905 123.792 492.904L547.466 492.904C553.15 492.905 557.759 497.514 557.76 503.198L557.76 531.252C557.759 536.936 553.15 541.545 547.466 541.546L123.792 541.546C118.107 541.545 113.498 536.936 113.498 531.252Z" fill="#00B050" fill-rule="evenodd" fill-opacity="1" transform="matrix(1.00155 0 0 1 799.289 489.29)"/><text fill="#FFFFFF" fill-opacity="1" font-family="MS Gothic,MS Gothic_MSFontService,sans-serif" font-style="normal" font-variant="normal" font-weight="400" font-stretch="normal" font-size="33" text-anchor="start" direction="ltr" writing-mode="lr-tb" unicode-bidi="normal" text-decoration="none" transform="matrix(0.811954 0 0 0.810698 954.359 1019)">プロトコルバインディング</text><path d="M499.39 567.488 575.595 567.488 575.271 490.472 499.39 567.488Z" fill="#FFFFFF" fill-rule="evenodd" fill-opacity="1" transform="matrix(1.00155 0 0 1 799.289 489.29)"/><path d="M499.39 567.488 513.303 506.067 575.595 490.472 499.39 567.488Z" fill="#BD6008" fill-rule="evenodd" fill-opacity="1" transform="matrix(1.00155 0 0 1 799.289 489.29)"/><path d="M338.872 657.516 338.872 648.599 329.954 648.599 329.954 657.516ZM338.872 639.681 338.872 630.763 329.954 630.763 329.954 639.681ZM338.872 621.846 338.872 612.928 329.954 612.928 329.954 621.846ZM338.872 604.01 338.872 595.093 329.954 595.093 329.954 604.01ZM338.872 586.175 338.872 577.257 329.954 577.257 329.954 586.175ZM338.872 568.34 338.872 562.624 329.954 562.624 329.954 568.34ZM347.789 567.083 334.413 540.33 321.036 567.083Z" fill="#BFBFBF" fill-rule="nonzero" fill-opacity="1" transform="matrix(1.00155 0 0 1 799.289 489.29)"/><path d="M218.888 749.583C318.346 769.783 318.346 729.385 417.793 729.385L417.793 624.381 218.888 624.381ZM235.276 624.381 235.276 610.767 432.823 610.767 432.823 716.43C425.314 716.43 417.795 717.162 417.795 717.162L417.795 624.381ZM250.679 610.767 250.679 597.484 449.937 597.484 449.937 702.816C441.379 702.816 432.823 703.365 432.823 703.365L432.823 610.767Z" fill="#00B050" fill-rule="evenodd" fill-opacity="1" transform="matrix(1.00155 0 0 1 799.289 489.29)"/><path d="M218.888 624.381 417.793 624.381 417.793 729.385C318.345 729.385 318.345 769.784 218.888 749.584ZM235.276 624.381 235.276 610.767 432.823 610.767 432.823 716.43C425.314 716.43 417.795 717.162 417.795 717.162M250.679 610.767 250.679 597.484 449.937 597.484 449.937 702.816C441.379 702.816 432.823 703.365 432.823 703.365" stroke="#FFFFFF" stroke-width="3.24279" stroke-linecap="butt" stroke-linejoin="round" stroke-miterlimit="10" stroke-opacity="1" fill="none" fill-rule="nonzero" transform="matrix(1.00155 0 0 1 799.289 489.29)"/><text fill="#FFFFFF" fill-opacity="1" font-family="MS Gothic,MS Gothic_MSFontService,sans-serif" font-style="normal" font-variant="normal" font-weight="400" font-stretch="normal" font-size="33" text-anchor="start" direction="ltr" writing-mode="lr-tb" unicode-bidi="normal" text-decoration="none" transform="matrix(0.811954 0 0 0.810698 1024.32 1156)">バインディング<tspan fill="#FFFFFF" fill-opacity="1" font-family="MS Gothic,MS Gothic_MSFontService,sans-serif" font-style="normal" font-variant="normal" font-weight="400" font-stretch="normal" font-size="33" text-anchor="start" direction="ltr" writing-mode="lr-tb" unicode-bidi="normal" text-decoration="none" x="15.427" y="50.5737">テンプレート</tspan></text></g></g></g></g><rect x="867" y="497" width="561" height="134" fill="#FFFFFF" fill-opacity="1"/><text fill="#000000" fill-opacity="1" font-family="Arial,Arial_MSFontService,sans-serif" font-style="normal" font-variant="normal" font-weight="700" font-stretch="normal" font-size="83" text-anchor="start" direction="ltr" writing-mode="lr-tb" unicode-bidi="normal" text-decoration="none" transform="matrix(1 0 0 1 900.154 594)">Architecture</text><path d="M1717 981 1684.5 981 1684.5 1078 1619.5 1078 1619.5 981 1587 981 1652 916Z" fill="#BEBFBF" fill-rule="evenodd" fill-opacity="1"/><path d="M2442 943 2442 975.5 2519 975.5 2519 1040.5 2442 1040.5 2442 1073 2377 1008Z" fill="#BEBFBF" fill-rule="evenodd" fill-opacity="1"/><text fill="#000000" fill-opacity="1" font-family="Arial,Arial_MSFontService,sans-serif" font-style="normal" font-variant="normal" font-weight="700" font-stretch="normal" font-size="83" text-anchor="start" direction="ltr" writing-mode="lr-tb" unicode-bidi="normal" text-decoration="none" transform="matrix(1 0 0 1 1325.66 868)">Thing Description<tspan fill="#000000" fill-opacity="1" font-family="Arial,Arial_MSFontService,sans-serif" font-style="normal" font-variant="normal" font-weight="400" font-stretch="normal" font-size="83" text-anchor="start" direction="ltr" writing-mode="lr-tb" unicode-bidi="normal" text-decoration="none" x="8.10559" y="323">Binding Templates</tspan></text></g></svg>