<svg width="1065" height="239" xmlns="http://www.w3.org/2000/svg" xmlns:xlink="http://www.w3.org/1999/xlink" overflow="hidden"><defs><clipPath id="clip0"><rect x="80" y="185" width="1065" height="239"/></clipPath></defs><g clip-path="url(#clip0)" transform="translate(-80 -185)"><rect x="81" y="186" width="1063" height="237" fill="#FFFFFF"/><path d="M94.5001 303.334C94.5001 292.38 103.38 283.5 114.334 283.5L380.666 283.5C391.62 283.5 400.5 292.38 400.5 303.334L400.5 382.666C400.5 393.62 391.62 402.5 380.666 402.5L114.334 402.5C103.38 402.5 94.5001 393.62 94.5001 382.666Z" stroke="#000000" stroke-width="1.33333" stroke-miterlimit="8" fill="#FFFFFF" fill-rule="evenodd"/><text font-family="Noto Sans CJK JP,Noto Sans CJK JP_MSFontService,sans-serif" font-weight="400" font-size="24" transform="translate(189.796 337)">Consumer<tspan font-size="24" x="-70.6667" y="28">(</tspan><tspan font-size="24" x="-62.5" y="28">アプリケーションなど</tspan><tspan font-size="24" x="177.5" y="28">)</tspan></text><path d="M808.5 303.334C808.5 292.38 817.38 283.5 828.334 283.5L1108.67 283.5C1119.62 283.5 1128.5 292.38 1128.5 303.334L1128.5 382.666C1128.5 393.62 1119.62 402.5 1108.67 402.5L828.334 402.5C817.38 402.5 808.5 393.62 808.5 382.666Z" stroke="#000000" stroke-width="1.33333" stroke-miterlimit="8" fill="#FFFFFF" fill-rule="evenodd"/><text font-family="Noto Sans CJK JP,Noto Sans CJK JP_MSFontService,sans-serif" font-weight="400" font-size="24" transform="translate(936.23 337)">Thing<tspan font-size="24" x="-96.3334" y="28">(</tspan><tspan font-size="24" x="-88.1667" y="28">センサ・ロボットなど</tspan>)</text><path d="M400.5 375.167 801.961 375.167 801.961 375.833 400.5 375.833ZM800.628 371.5 808.628 375.5 800.628 379.5Z"/><text font-family="Noto Sans CJK JP,Noto Sans CJK JP_MSFontService,sans-serif" font-weight="400" font-size="24" transform="translate(556.192 369)">相互作用<tspan font-size="24" x="-87.8467" y="28">(Property, Action, Event)</tspan></text><path d="M394.053 283.428 395.175 282.483 399.076 279.903 403.405 277.456 408.232 275.011 413.498 272.692 419.197 270.5 425.331 268.309 431.841 266.243 438.789 264.241 453.677 260.55 469.876 257.235 487.325 254.295 505.835 251.794 525.282 249.731 545.54 248.105 566.423 246.979 587.931 246.292 609.752 246.167 631.948 246.542 654.206 247.542 668.524 248.48 682.468 249.606 695.912 250.981 708.98 252.544 721.487 254.295 733.432 256.234 744.878 258.361 755.699 260.675 765.896 263.115 775.407 265.743 784.17 268.497 792.246 271.439 799.512 274.446 806.034 277.644 811.62 280.971 816.381 284.353 815.994 284.897 811.244 281.522 811.267 281.536 805.704 278.224 805.728 278.237 799.228 275.049 799.248 275.058 791.998 272.058 792.011 272.063 783.948 269.126 783.963 269.131 775.213 266.381 775.224 266.384 765.724 263.759 765.735 263.762 755.547 261.324 755.555 261.326 744.743 259.014 744.752 259.015 733.314 256.89 733.322 256.892 721.384 254.954 721.391 254.955 708.891 253.205 708.898 253.206 695.835 251.644 695.841 251.644 682.404 250.269 682.411 250.27 668.473 249.145 668.478 249.145 654.166 248.208 654.173 248.208 631.923 247.208 631.932 247.208 609.744 246.833 609.752 246.833 587.939 246.958 587.948 246.958 566.448 247.646 566.456 247.645 545.581 248.77 545.589 248.77 525.339 250.395 525.348 250.394 505.91 252.457 505.92 252.455 487.42 254.955 487.43 254.954 469.993 257.891 470.004 257.889 453.817 261.202 453.83 261.199 438.955 264.886 438.967 264.883 432.03 266.883 432.038 266.88 425.538 268.943 425.55 268.939 419.425 271.126 419.432 271.124 413.745 273.311 413.759 273.305 408.509 275.618 408.526 275.61 403.713 278.047 403.727 278.04 399.414 280.478 399.434 280.466 395.559 283.028 395.59 283.005 394.482 283.938ZM397.874 285.867 389.188 288 392.693 279.771Z"/><path d="M529.5 206.5 679.5 206.5 679.5 274.833 665.833 288.5 529.5 288.5Z" fill="#FFFFFF" fill-rule="evenodd"/><path d="M665.833 288.5 668.567 277.566 679.5 274.833Z" fill="#CDCDCD" fill-rule="evenodd"/><path d="M665.833 288.5 668.567 277.566 679.5 274.833 665.833 288.5 529.5 288.5 529.5 206.5 679.5 206.5 679.5 274.833" stroke="#000000" stroke-width="1.33333" stroke-miterlimit="8" fill="none" fill-rule="evenodd"/><text font-family="Noto Sans CJK JP,Noto Sans CJK JP_MSFontService,sans-serif" font-weight="400" font-size="24" transform="translate(572.355 234)">Thing<tspan font-size="24" x="-32.3533" y="28">Description</tspan></text></g></svg>