<?xml version="1.0" encoding="UTF-8" standalone="no"?><svg xmlns="http://www.w3.org/2000/svg" xmlns:xlink="http://www.w3.org/1999/xlink" contentScriptType="application/ecmascript" contentStyleType="text/css" height="312px" preserveAspectRatio="none" style="width:303px;height:312px;" version="1.1" viewBox="0 0 303 312" width="303px" zoomAndPan="magnify"><defs><filter height="300%" id="f5ldwciorvsid" width="300%" x="-1" y="-1"><feGaussianBlur result="blurOut" stdDeviation="2.0"/><feColorMatrix in="blurOut" result="blurOut2" type="matrix" values="0 0 0 0 0 0 0 0 0 0 0 0 0 0 0 0 0 0 .4 0"/><feOffset dx="4.0" dy="4.0" in="blurOut2" result="blurOut3"/><feBlend in="SourceGraphic" in2="blurOut3" mode="normal"/></filter></defs><g><rect fill="#FFFFFF" filter="url(#f5ldwciorvsid)" height="90.5313" style="stroke:#000000;stroke-width:2.0;" width="279" x="10" y="57.2969"/><rect fill="#FFFFFF" filter="url(#f5ldwciorvsid)" height="90.5313" style="stroke:#000000;stroke-width:2.0;" width="279" x="10" y="161.8281"/><line style="stroke:#A80036;stroke-width:1.0;stroke-dasharray:5.0,5.0;" x1="65" x2="65" y1="40.2969" y2="269.3594"/><line style="stroke:#A80036;stroke-width:1.0;stroke-dasharray:5.0,5.0;" x1="250" x2="250" y1="40.2969" y2="269.3594"/><rect fill="#FEFECE" filter="url(#f5ldwciorvsid)" height="30.2969" style="stroke:#A80036;stroke-width:1.5;" width="86" x="20" y="5"/><text fill="#000000" font-family="sans-serif" font-size="14" lengthAdjust="spacingAndGlyphs" textLength="72" x="27" y="24.9951">Consumer</text><rect fill="#FEFECE" filter="url(#f5ldwciorvsid)" height="30.2969" style="stroke:#A80036;stroke-width:1.5;" width="86" x="20" y="268.3594"/><text fill="#000000" font-family="sans-serif" font-size="14" lengthAdjust="spacingAndGlyphs" textLength="72" x="27" y="288.3545">Consumer</text><rect fill="#FEFECE" filter="url(#f5ldwciorvsid)" height="30.2969" style="stroke:#A80036;stroke-width:1.5;" width="54" x="221" y="5"/><text fill="#000000" font-family="sans-serif" font-size="14" lengthAdjust="spacingAndGlyphs" textLength="40" x="228" y="24.9951">Thing</text><rect fill="#FEFECE" filter="url(#f5ldwciorvsid)" height="30.2969" style="stroke:#A80036;stroke-width:1.5;" width="54" x="221" y="268.3594"/><text fill="#000000" font-family="sans-serif" font-size="14" lengthAdjust="spacingAndGlyphs" textLength="40" x="228" y="288.3545">Thing</text><path d="M10,57.2969 L92,57.2969 L92,64.2969 L82,74.2969 L10,74.2969 L10,57.2969 " fill="#EEEEEE" style="stroke:#000000;stroke-width:1.0;"/><rect fill="none" height="90.5313" style="stroke:#000000;stroke-width:2.0;" width="279" x="10" y="57.2969"/><text fill="#000000" font-family="sans-serif" font-size="13" font-weight="bold" lengthAdjust="spacingAndGlyphs" textLength="37" x="25" y="70.3638">Read</text><polygon fill="#A80036" points="238,91.5625,248,95.5625,238,99.5625,242,95.5625" style="stroke:#A80036;stroke-width:1.0;"/><line style="stroke:#A80036;stroke-width:1.0;" x1="65" x2="244" y1="95.5625" y2="95.5625"/><text fill="#000000" font-family="sans-serif" font-size="13" lengthAdjust="spacingAndGlyphs" textLength="114" x="72" y="90.4966">GET /led HTTP/1.1</text><polygon fill="#A80036" points="76,135.8281,66,139.8281,76,143.8281,72,139.8281" style="stroke:#A80036;stroke-width:1.0;"/><line style="stroke:#A80036;stroke-width:1.0;" x1="70" x2="249" y1="139.8281" y2="139.8281"/><text fill="#000000" font-family="sans-serif" font-size="13" lengthAdjust="spacingAndGlyphs" textLength="46" x="82" y="119.6294">200 OK</text><text fill="#000000" font-family="sans-serif" font-size="13" lengthAdjust="spacingAndGlyphs" textLength="148" x="86" y="134.7622">payload:{"state":true}</text><path d="M10,161.8281 L97,161.8281 L97,168.8281 L87,178.8281 L10,178.8281 L10,161.8281 " fill="#EEEEEE" style="stroke:#000000;stroke-width:1.0;"/><rect fill="none" height="90.5313" style="stroke:#000000;stroke-width:2.0;" width="279" x="10" y="161.8281"/><text fill="#000000" font-family="sans-serif" font-size="13" font-weight="bold" lengthAdjust="spacingAndGlyphs" textLength="42" x="25" y="174.895">Write</text><polygon fill="#A80036" points="238,211.2266,248,215.2266,238,219.2266,242,215.2266" style="stroke:#A80036;stroke-width:1.0;"/><line style="stroke:#A80036;stroke-width:1.0;" x1="65" x2="244" y1="215.2266" y2="215.2266"/><text fill="#000000" font-family="sans-serif" font-size="13" lengthAdjust="spacingAndGlyphs" textLength="113" x="72" y="195.0278">PUT /led HTTP/1.1</text><text fill="#000000" font-family="sans-serif" font-size="13" lengthAdjust="spacingAndGlyphs" textLength="153" x="80" y="210.1606">payload:{"state":false}</text><polygon fill="#A80036" points="76,240.3594,66,244.3594,76,248.3594,72,244.3594" style="stroke:#A80036;stroke-width:1.0;"/><line style="stroke:#A80036;stroke-width:1.0;" x1="70" x2="249" y1="244.3594" y2="244.3594"/><text fill="#000000" font-family="sans-serif" font-size="13" lengthAdjust="spacingAndGlyphs" textLength="46" x="82" y="239.2935">200 OK</text><!--MD5=[421e0fa8cbc68dd16dd519bd534275ee]
@startuml
group Read
Consumer -> Thing: GET /led HTTP/1.1
Consumer <- Thing: 200 OK\n payload:{"state":true}
end
group Write
Consumer -> Thing: PUT /led HTTP/1.1\n  payload:{"state":false}
Consumer <- Thing: 200 OK
end
@enduml

PlantUML version 1.2020.22(Sun Dec 06 09:36:27 UTC 2020)
(GPL source distribution)
Java Runtime: Java(TM) SE Runtime Environment
JVM: Java HotSpot(TM) 64-Bit Server VM
Default Encoding: UTF-8
Language: en
Country: US
--></g></svg>